<?xml version="1.0" encoding="UTF-8" standalone="no"?>
<!-- Created with Inkscape (http://www.inkscape.org/) -->

<svg
   width="187.62582mm"
   height="129.90768mm"
   viewBox="0 0 187.62582 129.90768"
   version="1.1"
   id="svg1"
   xml:space="preserve"
   xmlns:inkscape="http://www.inkscape.org/namespaces/inkscape"
   xmlns:sodipodi="http://sodipodi.sourceforge.net/DTD/sodipodi-0.dtd"
   xmlns="http://www.w3.org/2000/svg"
   xmlns:svg="http://www.w3.org/2000/svg"><sodipodi:namedview
     id="namedview1"
     pagecolor="#ffffff"
     bordercolor="#000000"
     borderopacity="0.25"
     inkscape:showpageshadow="2"
     inkscape:pageopacity="0.0"
     inkscape:pagecheckerboard="0"
     inkscape:deskcolor="#d1d1d1"
     inkscape:document-units="mm" /><defs
     id="defs1" /><g
     inkscape:label="Layer 1"
     inkscape:groupmode="layer"
     id="layer1"
     transform="translate(-9.3917238,-72.461218)"><g
       id="surface1"
       transform="matrix(1.7744288,0,0,1.9161451,14.056756,88.534032)"><path
         style="fill:#e64c2b;fill-opacity:1;fill-rule:nonzero;stroke:none"
         d="m 50.175781,7.4375 c 0.01172,0.00391 0.02734,0.00391 0.03906,0.00781 0.03125,0.00391 0.06641,0.011719 0.101562,0.015626 0.01953,0.00391 0.04297,0.00781 0.0625,0.011718 0.84375,0.144532 1.683594,0.304688 4.535156,0.929688 0.0078,0.00391 0.01563,0.00391 0.02344,0.00781 0.773438,0.179688 1.546875,0.367188 2.3125,0.570313 0.08594,0.023437 0.171875,0.042969 0.257812,0.066406 0.738282,0.191406 1.472657,0.386719 2.207032,0.59375 0.02344,0.00781 0.05078,0.011719 0.07422,0.019531 0.539063,0.148438 1.078126,0.304688 1.613282,0.460938 0.01563,0.0039 0.03125,0.0078 0.05078,0.01172 0.738281,0.214844 1.476563,0.4375 3.179687,0.957032 0.05078,0.01563 0.101563,0.03125 0.148438,0.04687 0.363281,0.113281 0.726562,0.226562 1.085938,0.339843 0.07812,0.02734 0.15625,0.05078 0.234374,0.07422 0.300782,0.09766 0.601563,0.195313 0.902344,0.292969 0.08594,0.02734 0.171875,0.05469 0.257813,0.08203 0.632812,0.203125 1.261719,0.414063 1.890625,0.625 0.03516,0.01172 0.07031,0.02344 0.109375,0.03516 0.261719,0.08984 0.527343,0.175781 0.789062,0.269531 0.06641,0.01953 0.132813,0.04297 0.199219,0.06641 0.01953,0.0039 0.03906,0.01172 0.05859,0.01953 0.01563,0.0039 0.01563,0.0039 0.03125,0.01172 0.171875,0.05859 0.347656,0.117187 0.519531,0.179687 0.125,0.04297 0.246094,0.08594 0.371094,0.125 0.191406,0.06641 0.382812,0.132813 0.574219,0.199219 0.02734,0.01172 0.05859,0.02344 0.08594,0.03125 C 72.628906,13.75 73.367188,14.011719 75,14.605469 c 0.05078,0.01953 0.09766,0.03906 0.148438,0.05469 0.574218,0.210938 1.148437,0.425782 1.722656,0.644532 0.01172,0.0039 0.02344,0.0078 0.03516,0.01562 0.476562,0.179688 0.953125,0.363282 1.429688,0.546876 0.03125,0.01172 0.0625,0.02344 0.09375,0.03516 0.203124,0.07813 0.402343,0.160156 0.605468,0.238281 0.07813,0.03125 0.160156,0.0625 0.238282,0.09375 0.308593,0.121094 0.613281,0.246094 0.921874,0.367187 0.01563,0.0078 0.01563,0.0078 0.03125,0.01563 0.332032,0.132812 0.664063,0.265624 0.992188,0.402343 0.01172,0.0039 0.01172,0.0039 0.02344,0.0078 0.300781,0.125 0.601562,0.25 0.902343,0.375 0.02734,0.01172 0.05859,0.02344 0.08594,0.03516 0.503906,0.210938 1,0.425781 1.5,0.640625 0.01953,0.0078 0.03906,0.01953 0.05859,0.02734 0.347657,0.152343 0.699219,0.304687 1.046876,0.464843 0.02344,0.0078 0.04297,0.01953 0.06641,0.02734 0.308594,0.140625 0.617187,0.28125 0.925781,0.425782 0.01172,0.0039 0.01953,0.01172 0.03125,0.01562 0.07813,0.03516 0.152344,0.07031 0.226563,0.105469 0.01953,0.0078 0.03906,0.01953 0.05859,0.02734 0.160157,0.07422 0.324219,0.152344 0.484375,0.230469 0.01172,0.0078 0.02734,0.01563 0.03906,0.01953 0.0078,0.0039 0.01563,0.0078 0.01953,0.01172 0.05469,0.02734 0.109375,0.05469 0.164062,0.07813 0.08594,0.03906 0.167969,0.08203 0.25,0.125 0.07422,0.03516 0.144532,0.07031 0.21875,0.105469 0.09375,0.04297 0.183594,0.08984 0.273438,0.136718 0.07422,0.03906 0.144531,0.07813 0.21875,0.113282 0.175781,0.08594 0.347656,0.179687 0.519531,0.273437 -0.0039,0.03516 -0.01172,0.0625 -0.03125,0.08984 -0.0078,0.01172 -0.0078,0.01172 -0.01563,0.02734 -0.0039,0.0078 -0.0078,0.01563 -0.01563,0.02734 -0.0039,0.0078 -0.0078,0.01953 -0.01563,0.02734 -0.04297,0.07422 -0.08594,0.148438 -0.128906,0.226562 -0.04297,0.07031 -0.08203,0.140626 -0.125,0.214844 -0.0625,0.113282 -0.128906,0.226563 -0.195312,0.339844 -0.02734,0.05078 -0.05859,0.101562 -0.08594,0.152344 -0.01172,0.01953 -0.02344,0.03906 -0.03516,0.05859 -0.0039,0.01172 -0.01172,0.01953 -0.01563,0.03125 -0.191407,0.332031 -0.191407,0.332031 -0.210938,0.363281 -0.01172,0.01953 -0.02344,0.03906 -0.03516,0.05859 -0.02734,0.05078 -0.05469,0.101563 -0.08594,0.152344 -0.0625,0.109375 -0.125,0.21875 -0.1875,0.328125 -0.04688,0.08203 -0.09375,0.167969 -0.144532,0.25 -0.03906,0.07031 -0.08203,0.140625 -0.121094,0.210938 -0.06641,0.117187 -0.132812,0.230469 -0.195312,0.34375 -0.03125,0.05078 -0.05859,0.101562 -0.08594,0.152343 -0.01172,0.01953 -0.02344,0.03906 -0.03516,0.05859 -0.0078,0.01172 -0.01172,0.01953 -0.01953,0.03125 -0.05078,0.08984 -0.05078,0.08984 -0.07031,0.121094 -0.0078,0.01953 -0.01953,0.03906 -0.03125,0.05859 -0.03125,0.05078 -0.05859,0.101562 -0.08594,0.148437 -0.06641,0.109375 -0.128906,0.222657 -0.191406,0.332031 -0.04687,0.08203 -0.09375,0.164063 -0.144531,0.25 -0.03906,0.07031 -0.08203,0.140626 -0.121094,0.210938 -0.06641,0.117188 -0.128906,0.230469 -0.195313,0.34375 -0.03125,0.05078 -0.05859,0.101562 -0.08594,0.148438 -0.01172,0.02344 -0.02344,0.04297 -0.03516,0.0625 -0.0078,0.0078 -0.01172,0.01953 -0.01953,0.03125 -0.05078,0.08984 -0.05078,0.08984 -0.06641,0.117187 -0.01172,0.02344 -0.02344,0.04297 -0.03516,0.0625 -0.03125,0.05078 -0.05859,0.101563 -0.08594,0.148437 -0.0625,0.109376 -0.128906,0.21875 -0.191406,0.332032 -0.04687,0.08203 -0.09375,0.164062 -0.144531,0.25 -0.03906,0.07031 -0.07813,0.140625 -0.121094,0.210937 -0.0625,0.113281 -0.128906,0.230469 -0.195313,0.34375 -0.02734,0.05078 -0.05859,0.101563 -0.08594,0.148438 -0.01172,0.02344 -0.02344,0.04297 -0.03516,0.0625 -0.0078,0.0078 -0.01172,0.01953 -0.01563,0.03125 -0.191406,0.328125 -0.191406,0.328125 -0.210938,0.359375 -0.01172,0.01953 -0.02344,0.03906 -0.03516,0.0625 -0.02734,0.04687 -0.05469,0.09766 -0.08594,0.148437 -0.0625,0.109375 -0.125,0.21875 -0.1875,0.328125 -0.04687,0.08594 -0.09375,0.167969 -0.144531,0.25 -0.03906,0.07031 -0.08203,0.144532 -0.121093,0.214844 -0.06641,0.113281 -0.132813,0.226562 -0.195313,0.34375 -0.03125,0.04687 -0.05859,0.09766 -0.08984,0.148438 -0.01172,0.01953 -0.01953,0.03906 -0.03125,0.05859 -0.0078,0.01172 -0.01172,0.02344 -0.01953,0.03125 -0.05078,0.08984 -0.05078,0.08984 -0.07031,0.121094 -0.01172,0.01953 -0.02344,0.03906 -0.03125,0.05859 -0.03125,0.05078 -0.05859,0.101562 -0.08984,0.152343 -0.0625,0.109376 -0.125,0.21875 -0.1875,0.328126 -0.04687,0.08594 -0.09375,0.167968 -0.144532,0.25 -0.03906,0.07031 -0.08203,0.144531 -0.121093,0.214843 -0.06641,0.113281 -0.128907,0.226563 -0.195313,0.339844 -0.03125,0.05078 -0.05859,0.101563 -0.08594,0.152344 -0.01172,0.01953 -0.02344,0.03906 -0.03516,0.05859 -0.0078,0.01172 -0.01172,0.01953 -0.01953,0.03125 -0.05078,0.08984 -0.05078,0.08984 -0.06641,0.121094 -0.01172,0.01953 -0.02344,0.03906 -0.03516,0.05859 -0.03125,0.05078 -0.05859,0.101562 -0.08594,0.152344 -0.06641,0.109375 -0.128906,0.21875 -0.191406,0.328125 -0.04687,0.08203 -0.09375,0.167969 -0.144531,0.25 -0.03906,0.07031 -0.08203,0.140625 -0.121094,0.214843 -0.06641,0.113282 -0.128906,0.226563 -0.195312,0.339844 -0.03125,0.05078 -0.05859,0.101563 -0.08594,0.152344 -0.01172,0.01953 -0.02344,0.03906 -0.03516,0.05859 -0.0078,0.01172 -0.01172,0.01953 -0.01953,0.03125 -0.1875,0.332031 -0.1875,0.332031 -0.207031,0.363281 -0.01172,0.01953 -0.02344,0.03906 -0.03516,0.05859 -0.02734,0.05078 -0.05469,0.101562 -0.08594,0.148437 -0.05469,0.101563 -0.113282,0.199219 -0.167969,0.296875 -0.05078,0.08984 -0.105469,0.183594 -0.15625,0.273438 -0.0039,0.0078 -0.01172,0.01563 -0.01563,0.02734 -0.01953,0.03125 -0.03906,0.0625 -0.05859,0.09766 -0.02734,-0.01563 -0.04687,-0.02734 -0.07031,-0.04687 -0.0039,-0.0078 -0.01172,-0.01172 -0.01563,-0.01563 -0.0078,-0.0078 -0.01172,-0.01563 -0.01953,-0.01953 -0.0078,-0.0078 -0.01563,-0.01563 -0.01953,-0.01953 -0.09375,-0.08984 -0.1875,-0.183594 -0.277344,-0.277344 -0.02734,-0.02734 -0.05469,-0.05469 -0.08203,-0.08203 -0.01953,-0.01563 -0.03516,-0.03516 -0.05078,-0.05078 -0.03906,-0.03906 -0.08203,-0.07813 -0.125,-0.117188 -0.02344,-0.01953 -0.04687,-0.04687 -0.07422,-0.07031 -0.0078,-0.0078 -0.0078,-0.0078 -0.01563,-0.01563 -0.01953,-0.01953 -0.03906,-0.04297 -0.0625,-0.0625 -0.05078,-0.05469 -0.101562,-0.105469 -0.160156,-0.15625 -0.04297,-0.03906 -0.08594,-0.08203 -0.128906,-0.125 -0.03906,-0.03906 -0.07813,-0.07813 -0.121094,-0.113281 -0.03125,-0.02734 -0.05859,-0.05859 -0.08594,-0.08594 -0.03906,-0.04297 -0.08203,-0.08203 -0.125,-0.117187 -0.03125,-0.02734 -0.05859,-0.05859 -0.08984,-0.08984 -0.03125,-0.03125 -0.0625,-0.05859 -0.09375,-0.08594 -0.03125,-0.02734 -0.05859,-0.05469 -0.08594,-0.08203 -0.02734,-0.03125 -0.05859,-0.05859 -0.08984,-0.08594 -0.03125,-0.02734 -0.05469,-0.05469 -0.08203,-0.08203 -0.02344,-0.02344 -0.05078,-0.04688 -0.07813,-0.06641 -0.02344,-0.02344 -0.04687,-0.05078 -0.07422,-0.07422 -0.01563,-0.01562 -0.03516,-0.03516 -0.05469,-0.05078 -0.03125,-0.02734 -0.05859,-0.05469 -0.08984,-0.08594 -0.01563,-0.01563 -0.03516,-0.03516 -0.05469,-0.05078 -0.03906,-0.03516 -0.07813,-0.07031 -0.113282,-0.105468 -0.0625,-0.05859 -0.125,-0.117188 -0.1875,-0.175782 -0.02734,-0.02344 -0.05078,-0.04687 -0.07422,-0.06641 -0.01172,-0.01172 -0.02344,-0.01953 -0.03125,-0.03125 -0.01953,-0.01563 -0.03906,-0.03516 -0.0625,-0.05469 -0.0625,-0.05859 -0.125,-0.113281 -0.1875,-0.171875 -0.01563,-0.01563 -0.03516,-0.03516 -0.05469,-0.05078 -0.0078,-0.0078 -0.01563,-0.01562 -0.02734,-0.02734 -0.02344,-0.01953 -0.04687,-0.04297 -0.07031,-0.0625 -0.05078,-0.04687 -0.09766,-0.09375 -0.148438,-0.136719 -0.02734,-0.02734 -0.05469,-0.05078 -0.08203,-0.07422 -0.04687,-0.04687 -0.09766,-0.08984 -0.148437,-0.132812 -0.04688,-0.04687 -0.09766,-0.09375 -0.148438,-0.136719 -0.03516,-0.03516 -0.07031,-0.06641 -0.109375,-0.09766 -0.04297,-0.04297 -0.08984,-0.08203 -0.132813,-0.121094 -0.03516,-0.03516 -0.07031,-0.06641 -0.105468,-0.09375 -0.03906,-0.03516 -0.07813,-0.07031 -0.117188,-0.105469 -0.02344,-0.02344 -0.05078,-0.04687 -0.07813,-0.07031 -0.01953,-0.01953 -0.04297,-0.03906 -0.0625,-0.05859 -0.03125,-0.02734 -0.0625,-0.05469 -0.09766,-0.08203 -0.05469,-0.04297 -0.101563,-0.08984 -0.152344,-0.136719 -0.04297,-0.03906 -0.08984,-0.07813 -0.132812,-0.117187 -0.01172,-0.0078 -0.02344,-0.01953 -0.03516,-0.02734 -0.0039,-0.0078 -0.01172,-0.01172 -0.01562,-0.01563 -0.03516,-0.03125 -0.07031,-0.05859 -0.101563,-0.08984 -0.03125,-0.03125 -0.06641,-0.05859 -0.101563,-0.08594 -0.03906,-0.03516 -0.07812,-0.07031 -0.121093,-0.109376 -0.02734,-0.02734 -0.05859,-0.05078 -0.08984,-0.07812 -0.03906,-0.03125 -0.07422,-0.05859 -0.105469,-0.09375 -0.04297,-0.03906 -0.08984,-0.07422 -0.132812,-0.113282 -0.02734,-0.01953 -0.05078,-0.04297 -0.07813,-0.06641 -0.03906,-0.03906 -0.08203,-0.07422 -0.125,-0.109375 -0.02734,-0.01953 -0.05078,-0.03906 -0.07422,-0.0625 -0.03125,-0.02734 -0.0625,-0.05469 -0.09375,-0.08203 -0.03516,-0.02734 -0.06641,-0.05469 -0.09766,-0.08594 -0.03125,-0.02734 -0.0625,-0.05469 -0.09375,-0.07813 -0.04297,-0.03516 -0.08203,-0.07031 -0.125,-0.105469 -0.05469,-0.05078 -0.113282,-0.101562 -0.175782,-0.152343 -0.02344,-0.01953 -0.04687,-0.03906 -0.07422,-0.0625 -0.0039,-0.0039 -0.0078,-0.0078 -0.01563,-0.01172 -0.02344,-0.02344 -0.05078,-0.04297 -0.07422,-0.06641 -0.04687,-0.03906 -0.09375,-0.07813 -0.140625,-0.113282 -0.04297,-0.03906 -0.08984,-0.07812 -0.132813,-0.113281 -0.03906,-0.03516 -0.08203,-0.07031 -0.121093,-0.105469 -0.03125,-0.02344 -0.05859,-0.04687 -0.08594,-0.07031 -0.03906,-0.03125 -0.07422,-0.0625 -0.113281,-0.09375 -0.03516,-0.03125 -0.07422,-0.0625 -0.109375,-0.09375 -0.04687,-0.03516 -0.08984,-0.07422 -0.132813,-0.109375 -0.03516,-0.02734 -0.07031,-0.05859 -0.105468,-0.08594 -0.0078,-0.0039 -0.01172,-0.01172 -0.01953,-0.01563 -0.02734,-0.02344 -0.05469,-0.04687 -0.08203,-0.07031 -0.07031,-0.05859 -0.140625,-0.117188 -0.210937,-0.171875 -0.02344,-0.01953 -0.04297,-0.03516 -0.06641,-0.05469 -0.06641,-0.05469 -0.132813,-0.109376 -0.203126,-0.164063 -0.03906,-0.03125 -0.08203,-0.06641 -0.121093,-0.101563 -0.03516,-0.03125 -0.07031,-0.05859 -0.109375,-0.08984 -0.04297,-0.03125 -0.08203,-0.06641 -0.125,-0.101563 -0.04687,-0.03906 -0.09375,-0.07813 -0.140625,-0.113281 -0.04297,-0.03516 -0.08203,-0.06641 -0.121094,-0.09766 -0.08594,-0.07031 -0.171875,-0.140625 -0.257813,-0.207031 -0.03906,-0.03516 -0.08203,-0.06641 -0.121093,-0.101563 -0.05469,-0.04297 -0.109375,-0.08594 -0.164063,-0.128906 -0.03516,-0.02734 -0.07031,-0.05469 -0.105468,-0.08203 -0.04297,-0.03906 -0.08984,-0.07422 -0.132813,-0.109376 -0.04297,-0.03125 -0.08594,-0.06641 -0.128906,-0.101562 -0.101563,-0.07813 -0.203125,-0.160156 -0.304688,-0.238281 -0.0702,-0.0546 -0.136604,-0.10929 -0.206916,-0.163978 C 70.816406,24.722656 70.691406,24.625 70.570312,24.53125 70.53125,24.5 70.492188,24.46875 70.453125,24.441406 70.386719,24.386719 70.320312,24.335938 70.25,24.28125 c -0.01953,-0.01172 -0.03906,-0.02734 -0.05859,-0.04297 -0.01172,-0.0078 -0.01953,-0.01563 -0.03125,-0.02344 -0.01953,-0.01563 -0.03906,-0.03125 -0.05859,-0.04687 -0.07422,-0.05859 -0.152343,-0.117188 -0.226562,-0.175781 -0.01953,-0.01563 -0.03906,-0.03125 -0.05859,-0.04297 -0.04297,-0.03125 -0.08203,-0.0625 -0.121094,-0.09375 -0.0078,-0.0039 -0.01562,-0.01172 -0.02344,-0.01563 -0.09375,-0.07422 -0.191406,-0.144532 -0.285156,-0.21875 -0.06641,-0.04687 -0.128907,-0.09766 -0.195313,-0.148438 -0.05078,-0.03906 -0.105468,-0.08203 -0.160156,-0.121094 -0.04297,-0.03125 -0.08594,-0.0625 -0.128906,-0.09766 -0.07422,-0.05469 -0.148438,-0.113281 -0.226563,-0.167968 -0.0625,-0.04297 -0.121093,-0.08984 -0.183593,-0.136719 -0.07422,-0.05859 -0.148438,-0.117188 -0.226563,-0.171875 -0.03516,-0.02734 -0.07422,-0.05469 -0.109375,-0.08203 -0.01563,-0.0078 -0.02734,-0.01953 -0.04297,-0.03125 -0.265625,-0.195312 -0.265625,-0.195312 -0.285156,-0.210937 -0.01563,-0.01172 -0.03125,-0.01953 -0.04297,-0.03125 -0.03906,-0.02734 -0.07422,-0.05469 -0.113281,-0.08203 -0.07813,-0.05859 -0.15625,-0.117188 -0.234375,-0.171875 -0.05078,-0.03906 -0.101562,-0.07422 -0.152344,-0.113281 -0.05859,-0.04297 -0.121094,-0.08984 -0.183594,-0.132813 -0.03516,-0.02734 -0.07422,-0.05469 -0.113281,-0.08203 -0.0039,-0.0039 -0.01172,-0.0078 -0.01953,-0.01563 -0.01563,-0.0078 -0.02734,-0.01953 -0.04297,-0.03125 -0.03516,-0.02344 -0.07031,-0.05078 -0.105469,-0.07422 -0.01172,-0.01172 -0.02734,-0.01953 -0.04297,-0.03125 -0.0039,-0.0039 -0.01172,-0.0078 -0.01953,-0.01563 -0.226562,-0.164063 -0.226562,-0.164063 -0.25,-0.179687 -0.01172,-0.01172 -0.02734,-0.01953 -0.03906,-0.03125 -0.03516,-0.02344 -0.07031,-0.05078 -0.105469,-0.07422 -0.06641,-0.05078 -0.136719,-0.09766 -0.203125,-0.144531 -0.07422,-0.05469 -0.148437,-0.109376 -0.222656,-0.164063 -0.03906,-0.02344 -0.07422,-0.05078 -0.109375,-0.07422 -0.0039,-0.0078 -0.01172,-0.01172 -0.01953,-0.01563 -0.04687,-0.03516 -0.09375,-0.06641 -0.140625,-0.101562 -0.04297,-0.03125 -0.08594,-0.0625 -0.128907,-0.09375 -0.0625,-0.04297 -0.125,-0.08984 -0.183593,-0.132813 -0.05469,-0.03906 -0.109375,-0.07813 -0.164063,-0.117187 -0.04687,-0.03125 -0.09375,-0.06641 -0.140625,-0.101563 -0.05469,-0.03516 -0.109375,-0.07422 -0.164062,-0.113281 -0.07813,-0.05859 -0.15625,-0.117187 -0.238281,-0.171875 -0.08594,-0.0625 -0.175782,-0.125 -0.261719,-0.1875 -0.06641,-0.04687 -0.132813,-0.09375 -0.199219,-0.144531 -0.03906,-0.02734 -0.07813,-0.05469 -0.117188,-0.08203 -0.03516,-0.02344 -0.06641,-0.04688 -0.09766,-0.07031 -0.07031,-0.04687 -0.136718,-0.09375 -0.203125,-0.140625 -0.05469,-0.04297 -0.113281,-0.08203 -0.171875,-0.125 -0.05859,-0.03906 -0.117187,-0.07813 -0.171875,-0.121094 -0.07031,-0.05078 -0.140625,-0.101562 -0.214843,-0.152344 -0.03906,-0.02734 -0.07813,-0.05469 -0.117188,-0.08203 -0.0078,-0.0039 -0.01563,-0.01172 -0.02344,-0.01563 -0.08203,-0.05859 -0.164062,-0.117187 -0.242187,-0.171875 -0.101563,-0.07031 -0.199219,-0.140625 -0.300781,-0.210937 -0.03906,-0.02734 -0.07813,-0.05469 -0.117188,-0.08203 -0.01563,-0.01172 -0.03125,-0.02344 -0.04687,-0.03516 -0.460937,-0.324218 -0.460937,-0.324218 -0.484375,-0.339844 -0.01563,-0.01172 -0.03125,-0.01953 -0.04687,-0.03125 -0.03516,-0.02734 -0.07422,-0.05469 -0.113281,-0.08203 -0.109375,-0.07422 -0.214844,-0.152343 -0.324219,-0.226562 -0.02734,-0.01953 -0.05469,-0.03906 -0.08203,-0.05859 -0.08594,-0.05859 -0.167969,-0.113281 -0.25,-0.171875 -0.0625,-0.04297 -0.128906,-0.08984 -0.191406,-0.132812 -0.05469,-0.03906 -0.113282,-0.07813 -0.167969,-0.117188 -0.05469,-0.03516 -0.109375,-0.07422 -0.160156,-0.109375 -0.08984,-0.0625 -0.175781,-0.125 -0.265625,-0.183594 -0.05859,-0.04297 -0.121094,-0.08203 -0.179688,-0.125 -0.02734,-0.01953 -0.05859,-0.03906 -0.08984,-0.0625 -0.03516,-0.02344 -0.07422,-0.05078 -0.109374,-0.07422 -0.08984,-0.0625 -0.175782,-0.121093 -0.265626,-0.183593 -0.03125,-0.01953 -0.05859,-0.03906 -0.08984,-0.05859 -0.01172,-0.01172 -0.02734,-0.02344 -0.04297,-0.03125 -0.03516,-0.02344 -0.07031,-0.05078 -0.109375,-0.07422 -0.109375,-0.07813 -0.222656,-0.152344 -0.332031,-0.230468 -0.03125,-0.01953 -0.05859,-0.03906 -0.08984,-0.05859 -0.238281,-0.164063 -0.480469,-0.328125 -0.722656,-0.492188 -0.02344,-0.01563 -0.04687,-0.03125 -0.07031,-0.04687 -0.183593,-0.125 -0.367187,-0.25 -0.550781,-0.375 -0.113281,-0.07031 -0.222656,-0.144531 -0.332031,-0.21875 -0.148438,-0.105469 -0.300781,-0.207031 -0.453125,-0.304687 -0.148438,-0.09766 -0.292969,-0.195313 -0.441406,-0.296875 -0.08203,-0.05469 -0.164063,-0.109375 -0.246094,-0.160157 -0.07031,-0.04297 -0.136719,-0.08984 -0.203125,-0.132812 -0.03516,-0.02734 -0.07031,-0.05078 -0.109375,-0.07422 -0.0078,-0.0078 -0.0078,-0.0078 -0.01953,-0.01563 -0.07422,-0.04687 -0.144531,-0.09375 -0.21875,-0.140625 -0.0039,-0.0039 -0.01172,-0.0078 -0.01562,-0.01172 -0.03125,-0.02344 -0.0625,-0.04297 -0.08984,-0.0625 -0.03516,-0.02344 -0.07422,-0.04687 -0.109375,-0.06641 -0.1875,-0.128906 -0.378907,-0.253906 -0.570313,-0.375 -0.03906,-0.02734 -0.07813,-0.05078 -0.117187,-0.07813 -0.0078,-0.0039 -0.01172,-0.0078 -0.01953,-0.01172 -0.03906,-0.02734 -0.07813,-0.05078 -0.117188,-0.07812 -0.04687,-0.03125 -0.09375,-0.05859 -0.140625,-0.08984 -0.0039,-0.0039 -0.01172,-0.0078 -0.01953,-0.01172 -0.09375,-0.0625 -0.1875,-0.121094 -0.28125,-0.183594 -0.05859,-0.03906 -0.117188,-0.07422 -0.179688,-0.113281 -0.09766,-0.06641 -0.195312,-0.128906 -0.292968,-0.191406 -0.04688,-0.03125 -0.09766,-0.0625 -0.144532,-0.09375 -0.01953,-0.01172 -0.03906,-0.02344 -0.05859,-0.03516 -0.03906,-0.02734 -0.07812,-0.05078 -0.117187,-0.07813 -0.117187,-0.07422 -0.230469,-0.148437 -0.347656,-0.222656 -0.02734,-0.01563 -0.05469,-0.03125 -0.07813,-0.05078 -0.101563,-0.0625 -0.203125,-0.128906 -0.304688,-0.191406 -0.03906,-0.02344 -0.07422,-0.04687 -0.109375,-0.07031 -0.01563,-0.0078 -0.03125,-0.01953 -0.04687,-0.02734 -0.08594,-0.05469 -0.08594,-0.05469 -0.109375,-0.07031 -0.01172,-0.0078 -0.02734,-0.01953 -0.04297,-0.02734 -0.03516,-0.02344 -0.07031,-0.04687 -0.109374,-0.07031 -0.105469,-0.06641 -0.214844,-0.136719 -0.324219,-0.203125 -0.04687,-0.03125 -0.09375,-0.05859 -0.140625,-0.08984 -0.0078,-0.0039 -0.01953,-0.01172 -0.02734,-0.01563 -0.04687,-0.03125 -0.09375,-0.05859 -0.140625,-0.08984 -0.09375,-0.05859 -0.191406,-0.117187 -0.285156,-0.175781 -0.0625,-0.03906 -0.121094,-0.07813 -0.183594,-0.113281 -0.105469,-0.07031 -0.214844,-0.136719 -0.320313,-0.203125 -0.05078,-0.03125 -0.101562,-0.0625 -0.152343,-0.09375 -0.01953,-0.01172 -0.03906,-0.02344 -0.05859,-0.03516 -0.121094,-0.07422 -0.121094,-0.07422 -0.152344,-0.09375 -0.01953,-0.01172 -0.03906,-0.02344 -0.05859,-0.03516 -0.04688,-0.03125 -0.09375,-0.05859 -0.140626,-0.08984 -0.02344,-0.01562 -0.04297,-0.02734 -0.06641,-0.04297 -0.01563,-0.0078 -0.03125,-0.01953 -0.04687,-0.03125 -0.01563,-0.0078 -0.01563,-0.0078 -0.02734,-0.01563 -0.0078,-0.0078 -0.01953,-0.01172 -0.02734,-0.01563 -0.02344,-0.01172 -0.02344,-0.01172 -0.04687,-0.0039 -0.02344,0.01172 -0.04687,0.02734 -0.07031,0.04297 -0.01172,0.0039 -0.01953,0.01172 -0.02734,0.01563 -0.01172,0.0078 -0.02344,0.01172 -0.03125,0.01953 -0.01172,0.0078 -0.02344,0.01172 -0.03516,0.01953 -0.01953,0.01563 -0.04297,0.02734 -0.06641,0.04297 -0.05078,0.03125 -0.101562,0.0625 -0.152344,0.09375 -0.01953,0.01172 -0.03906,0.02344 -0.05859,0.03906 -0.04297,0.02344 -0.08203,0.04687 -0.125,0.07422 -0.113281,0.07031 -0.230468,0.144531 -0.347656,0.214844 -0.02344,0.01562 -0.04687,0.03125 -0.07031,0.04297 -0.113282,0.07422 -0.226563,0.144532 -0.339844,0.214844 -0.04687,0.02734 -0.09375,0.05859 -0.140625,0.08594 -0.01953,0.01172 -0.03516,0.02344 -0.05469,0.03516 -0.109376,0.07031 -0.109376,0.07031 -0.140626,0.08594 -0.01562,0.01172 -0.03516,0.02344 -0.05469,0.03516 -0.04687,0.03125 -0.09375,0.05859 -0.140625,0.08984 -0.105469,0.06641 -0.210938,0.132813 -0.316406,0.199219 -0.03906,0.02344 -0.07422,0.04687 -0.109375,0.07031 -0.01563,0.0078 -0.03125,0.01953 -0.04687,0.02734 -0.08594,0.05469 -0.08594,0.05469 -0.109375,0.07031 -0.01172,0.0078 -0.02734,0.01953 -0.04297,0.02734 -0.03516,0.02344 -0.07031,0.04688 -0.109375,0.07031 -0.101563,0.0625 -0.207031,0.128906 -0.308594,0.195313 -0.04297,0.02734 -0.08594,0.05469 -0.128906,0.08203 -0.0078,0.0039 -0.01563,0.01172 -0.02344,0.01563 -0.04297,0.02734 -0.08594,0.05469 -0.128907,0.08203 -0.117187,0.07422 -0.234375,0.152344 -0.351562,0.226563 -0.03125,0.01953 -0.0625,0.03906 -0.09375,0.05859 -0.08594,0.05859 -0.175781,0.113281 -0.265625,0.171875 -0.05859,0.03906 -0.113282,0.07422 -0.171875,0.109375 -0.09375,0.0625 -0.1875,0.125 -0.285157,0.183594 -0.04297,0.03125 -0.08594,0.05859 -0.128906,0.08594 -0.07813,0.05078 -0.15625,0.105469 -0.238281,0.15625 -0.02344,0.01563 -0.04297,0.02734 -0.06641,0.04297 -0.375,0.246094 -0.746094,0.488281 -1.121094,0.734375 -0.01563,0.01172 -0.03125,0.02344 -0.04687,0.03516 -0.0078,0.0039 -0.01563,0.0078 -0.02734,0.01563 -0.04687,0.03125 -0.09766,0.06641 -0.148437,0.09766 -0.1875,0.125 -0.371094,0.246094 -0.554688,0.371094 -0.125,0.08594 -0.25,0.167968 -0.378906,0.253906 -0.179687,0.117187 -0.355469,0.238281 -0.535156,0.359375 -0.05859,0.03906 -0.117188,0.07813 -0.175781,0.117187 -0.558594,0.375 -1.113282,0.753906 -1.667969,1.136719 -0.03906,0.02344 -0.07422,0.04687 -0.109375,0.07422 -0.01172,0.0078 -0.01172,0.0078 -0.02344,0.01563 -0.03906,0.02344 -0.07422,0.05078 -0.109375,0.07422 -0.08984,0.05859 -0.175781,0.121093 -0.261719,0.179687 -0.03125,0.01953 -0.0625,0.04297 -0.09375,0.0625 -0.01172,0.0078 -0.02344,0.01953 -0.03516,0.02734 -0.07422,0.05078 -0.07422,0.05078 -0.09375,0.0625 -0.01172,0.0078 -0.02344,0.01953 -0.03516,0.02734 -0.03125,0.01953 -0.0625,0.03906 -0.08984,0.0625 -0.08594,0.05469 -0.167968,0.113282 -0.25,0.171876 -0.05469,0.03906 -0.113281,0.07812 -0.167968,0.117187 -0.05469,0.03516 -0.109376,0.07422 -0.164063,0.113281 -0.05859,0.03906 -0.121094,0.08203 -0.179687,0.125 -0.08594,0.05859 -0.171876,0.117188 -0.257813,0.179688 -0.04687,0.03125 -0.08984,0.0625 -0.136719,0.09375 -0.01563,0.01172 -0.03516,0.02344 -0.05078,0.03516 -0.03516,0.02734 -0.07422,0.05078 -0.109375,0.07422 -0.08984,0.06641 -0.179688,0.128906 -0.273438,0.191406 -0.05859,0.04297 -0.117187,0.08594 -0.175781,0.125 -0.128906,0.08984 -0.257812,0.183594 -0.386719,0.273437 -0.05859,0.04297 -0.117187,0.08203 -0.175781,0.125 -0.05078,0.03125 -0.101562,0.06641 -0.148437,0.101563 -0.05859,0.04297 -0.113282,0.08203 -0.171875,0.121094 -0.07813,0.05469 -0.152344,0.109375 -0.230469,0.164062 -0.03125,0.02344 -0.06641,0.04687 -0.09766,0.07031 -0.01172,0.0078 -0.02734,0.01563 -0.03906,0.02734 -0.07813,0.05469 -0.07813,0.05469 -0.09766,0.06641 -0.01172,0.01172 -0.02734,0.01953 -0.03906,0.03125 -0.03125,0.01953 -0.06641,0.04297 -0.09766,0.06641 -0.06641,0.04687 -0.132812,0.09766 -0.199218,0.144531 -0.05859,0.04297 -0.117188,0.08203 -0.175782,0.121094 -0.05859,0.04297 -0.117187,0.08203 -0.171875,0.125 -0.05078,0.03516 -0.101562,0.07031 -0.148437,0.105469 -0.05078,0.03516 -0.09766,0.07031 -0.144532,0.101562 -0.05469,0.04297 -0.113281,0.08203 -0.171874,0.125 -0.0625,0.03906 -0.121094,0.08203 -0.179688,0.128906 -0.05469,0.03906 -0.109375,0.07813 -0.164062,0.117188 -0.05078,0.03125 -0.09375,0.06641 -0.140626,0.09766 -0.05859,0.04687 -0.121093,0.08984 -0.183593,0.132813 -0.04687,0.03125 -0.09375,0.06641 -0.140625,0.101562 -0.05078,0.03906 -0.105469,0.07813 -0.160156,0.113281 -0.0625,0.04297 -0.125,0.08594 -0.183594,0.132813 -0.04687,0.03906 -0.09766,0.07422 -0.152344,0.109375 -0.04687,0.03516 -0.09375,0.06641 -0.140625,0.101562 -0.0078,0.0039 -0.01563,0.01172 -0.01953,0.01563 -0.01563,0.01172 -0.03125,0.01953 -0.04297,0.03125 -0.03516,0.02344 -0.07031,0.05078 -0.105469,0.07812 -0.0078,0.0039 -0.01563,0.0078 -0.02344,0.01563 -0.04687,0.03125 -0.09375,0.06641 -0.140625,0.09766 -0.04297,0.03125 -0.08594,0.06641 -0.132813,0.09766 -0.04687,0.03516 -0.09766,0.07031 -0.144531,0.105469 -0.07031,0.05078 -0.140625,0.101562 -0.210938,0.152343 -0.02734,0.01953 -0.05469,0.03906 -0.08594,0.05859 -0.01172,0.01172 -0.02734,0.02344 -0.03906,0.03125 -0.03516,0.02734 -0.07031,0.05078 -0.105468,0.07422 -0.07813,0.05859 -0.15625,0.117187 -0.234375,0.171875 -0.05078,0.03906 -0.09766,0.07422 -0.148438,0.109375 -0.07813,0.05859 -0.160156,0.117187 -0.238281,0.175781 -0.03516,0.02734 -0.07031,0.05469 -0.109375,0.08203 -0.01563,0.0078 -0.02734,0.01953 -0.04297,0.03125 -0.261718,0.195312 -0.261718,0.195312 -0.285156,0.210937 -0.01563,0.01172 -0.03125,0.01953 -0.04297,0.03125 -0.03906,0.02734 -0.07422,0.05469 -0.109375,0.08203 -0.08594,0.0625 -0.171875,0.125 -0.253906,0.191406 -0.0625,0.04688 -0.121094,0.08984 -0.183594,0.136719 -0.05469,0.03906 -0.109375,0.08203 -0.164062,0.121094 C 31.0625,23.28125 31,23.328125 30.9375,23.375 c -0.07031,0.05078 -0.140625,0.105469 -0.210938,0.160156 -0.05078,0.03516 -0.09766,0.07422 -0.148437,0.109375 -0.0625,0.04687 -0.125,0.09375 -0.1875,0.140625 -0.04297,0.03906 -0.08984,0.07422 -0.136719,0.109375 -0.125,0.09375 -0.25,0.191407 -0.375,0.285157 -0.01563,0.01172 -0.03125,0.02344 -0.04687,0.03516 -0.0078,0.0078 -0.01953,0.01563 -0.02734,0.02344 -0.02734,0.01953 -0.05078,0.03906 -0.07422,0.05859 -0.06641,0.05078 -0.132813,0.101563 -0.195313,0.152344 -0.04297,0.03125 -0.08203,0.0625 -0.125,0.09375 -0.101562,0.07813 -0.203125,0.160156 -0.304687,0.238281 -0.04297,0.03516 -0.08984,0.07031 -0.132813,0.105469 -0.06641,0.05078 -0.132812,0.101562 -0.195312,0.152343 -0.01563,0.01563 -0.03125,0.02734 -0.05078,0.03906 -0.05469,0.04297 -0.109374,0.08984 -0.164062,0.132813 -0.07813,0.0625 -0.152344,0.121093 -0.230469,0.183593 -0.06641,0.05078 -0.128906,0.101563 -0.191406,0.152344 -0.04297,0.03516 -0.08984,0.07031 -0.136719,0.109375 -0.03906,0.03125 -0.08203,0.0625 -0.121094,0.09766 -0.04687,0.03516 -0.09375,0.07422 -0.140624,0.109375 -0.0625,0.05078 -0.128907,0.105469 -0.191407,0.15625 -0.03125,0.02734 -0.06641,0.05469 -0.09766,0.07813 -0.0078,0.0078 -0.01172,0.01172 -0.01953,0.01563 -0.03906,0.03516 -0.07813,0.06641 -0.117188,0.09766 -0.05078,0.04297 -0.101562,0.08203 -0.15625,0.125 -0.01563,0.01562 -0.03516,0.03125 -0.05469,0.04687 -0.07031,0.05859 -0.140625,0.113282 -0.210938,0.171876 -0.01953,0.01562 -0.03516,0.02734 -0.05078,0.04297 -0.01563,0.01172 -0.01563,0.01172 -0.02734,0.01953 -0.01563,0.01562 -0.03125,0.02734 -0.04687,0.04297 -0.06641,0.05078 -0.132812,0.105469 -0.195312,0.15625 -0.02734,0.02344 -0.05469,0.04687 -0.08203,0.07031 -0.06641,0.05469 -0.132813,0.105469 -0.195313,0.160156 -0.05469,0.05078 -0.113281,0.09375 -0.167969,0.140625 -0.06641,0.05469 -0.132812,0.109375 -0.199218,0.164062 -0.0625,0.05859 -0.128907,0.113282 -0.195313,0.164063 -0.04687,0.04297 -0.09766,0.08203 -0.144531,0.125 -0.113282,0.09766 -0.113282,0.09766 -0.171875,0.144531 -0.04687,0.03516 -0.08984,0.07813 -0.136719,0.117188 -0.04297,0.03516 -0.08594,0.07422 -0.128906,0.109375 -0.03516,0.03125 -0.07422,0.0625 -0.109375,0.09375 -0.03906,0.03516 -0.07813,0.06641 -0.117188,0.09766 -0.03906,0.03516 -0.07813,0.06641 -0.117187,0.101563 -0.02344,0.02344 -0.04687,0.04297 -0.07422,0.0625 -0.04297,0.03516 -0.08594,0.07422 -0.128906,0.113281 -0.03125,0.03125 -0.06641,0.05859 -0.101563,0.08594 -0.02344,0.01953 -0.05078,0.04297 -0.07422,0.06641 -0.04297,0.03906 -0.08594,0.07422 -0.128907,0.109376 -0.03516,0.02734 -0.06641,0.05859 -0.101562,0.08984 -0.02344,0.02344 -0.04687,0.04297 -0.07422,0.06641 -0.04297,0.03516 -0.08594,0.07031 -0.128906,0.109374 -0.02734,0.03125 -0.0625,0.05859 -0.09375,0.08594 -0.05078,0.03906 -0.09766,0.08203 -0.144532,0.125 -0.04297,0.03906 -0.08594,0.07813 -0.128906,0.117188 -0.0625,0.05469 -0.125,0.109374 -0.1875,0.164062 -0.02734,0.02344 -0.05469,0.05078 -0.08203,0.07422 -0.01953,0.01563 -0.04297,0.03516 -0.0625,0.05469 -0.02734,0.02734 -0.05469,0.05078 -0.08203,0.07422 -0.04687,0.03906 -0.08594,0.07813 -0.128906,0.117187 -0.08984,0.07813 -0.08984,0.07813 -0.128907,0.113282 -0.03906,0.03516 -0.07422,0.06641 -0.109375,0.101562 -0.03125,0.02734 -0.0625,0.05469 -0.09375,0.08203 -0.03125,0.02734 -0.0625,0.05469 -0.08984,0.08203 -0.02734,0.02344 -0.05078,0.04687 -0.07812,0.07031 -0.03906,0.03516 -0.07422,0.06641 -0.113282,0.101563 -0.03906,0.03516 -0.07422,0.07031 -0.113281,0.105468 -0.02734,0.02344 -0.05469,0.04688 -0.07813,0.07031 -0.03516,0.03125 -0.07031,0.0625 -0.101562,0.09375 -0.04688,0.04297 -0.09375,0.08203 -0.136719,0.125 -0.03125,0.02734 -0.05859,0.05469 -0.08594,0.07813 -0.05469,0.05078 -0.109375,0.101562 -0.160156,0.148438 -0.01953,0.01953 -0.04297,0.03906 -0.0625,0.05859 -0.0078,0.0078 -0.01953,0.01563 -0.02734,0.02734 -0.02734,0.02344 -0.05078,0.04687 -0.07422,0.06641 -0.07422,0.06641 -0.144531,0.132813 -0.214843,0.199219 -0.01563,0.01563 -0.03516,0.03125 -0.05078,0.04687 -0.07031,0.07031 -0.144532,0.136719 -0.214844,0.203125 -0.02734,0.02344 -0.05078,0.04687 -0.07813,0.07422 -0.0039,0.0039 -0.01172,0.01172 -0.01953,0.01563 -0.01172,0.01172 -0.02344,0.02344 -0.03516,0.03516 -0.03125,0.02734 -0.05859,0.05469 -0.08594,0.08594 -0.02344,0.01953 -0.04297,0.03906 -0.06641,0.05859 -0.03125,0.02734 -0.05859,0.05469 -0.08984,0.08594 -0.02734,0.02734 -0.05469,0.05469 -0.08594,0.08203 -0.04297,0.03516 -0.08203,0.07422 -0.121094,0.117188 -0.02734,0.02734 -0.05469,0.05469 -0.08203,0.07812 -0.03906,0.03516 -0.07813,0.07031 -0.113281,0.109376 -0.03516,0.03516 -0.07031,0.07031 -0.109375,0.105468 -0.04687,0.03906 -0.08984,0.08594 -0.136719,0.128906 -0.08984,0.09375 -0.08984,0.09375 -0.128906,0.128907 -0.0625,0.05469 -0.121094,0.113281 -0.179688,0.171875 -0.02344,0.02734 -0.04687,0.05078 -0.07422,0.07422 -0.0039,0.0078 -0.0078,0.01172 -0.01563,0.01953 -0.02734,0.02734 -0.05469,0.05078 -0.08594,0.07813 -0.04297,0.03906 -0.08203,0.07813 -0.125,0.121093 -0.01563,0.01563 -0.03125,0.03125 -0.04687,0.05078 -0.02734,0.02344 -0.05078,0.05078 -0.07813,0.07813 -0.02344,0.02344 -0.05078,0.05078 -0.07422,0.07422 -0.0078,0.0078 -0.01562,0.01562 -0.02344,0.02344 -0.0078,0.0078 -0.01563,0.01563 -0.02344,0.02344 -0.0078,0.01172 -0.0078,0.01172 -0.01953,0.01953 -0.01563,0.01563 -0.01563,0.01563 -0.04297,0.01563 -0.0039,-0.0078 -0.0078,-0.01172 -0.0078,-0.01953 -0.05859,-0.101563 -0.117187,-0.203126 -0.175781,-0.304688 -0.04687,-0.08203 -0.09375,-0.160156 -0.140625,-0.242188 -0.0625,-0.113281 -0.128907,-0.230468 -0.195313,-0.34375 -0.02734,-0.05078 -0.05859,-0.09766 -0.08594,-0.148437 -0.01172,-0.01953 -0.02344,-0.03906 -0.03516,-0.0625 -0.02344,-0.03906 -0.04687,-0.07813 -0.07031,-0.117187 -0.0039,-0.01172 -0.01172,-0.02344 -0.01563,-0.03125 -0.01172,-0.01953 -0.02344,-0.03906 -0.03516,-0.0625 -0.02734,-0.04688 -0.05859,-0.09766 -0.08594,-0.148438 -0.0625,-0.109375 -0.125,-0.21875 -0.1875,-0.328125 -0.04297,-0.07422 -0.08594,-0.148437 -0.128906,-0.226563 -0.04687,-0.07812 -0.09375,-0.15625 -0.140625,-0.238281 -0.0625,-0.113281 -0.128906,-0.226562 -0.195312,-0.34375 -0.02734,-0.04687 -0.05859,-0.09766 -0.08594,-0.148437 -0.01172,-0.01953 -0.02344,-0.03906 -0.03516,-0.0625 -0.02344,-0.03906 -0.04687,-0.07813 -0.07031,-0.117188 -0.0039,-0.01172 -0.01172,-0.01953 -0.01563,-0.03125 -0.01172,-0.01953 -0.02344,-0.03906 -0.03516,-0.0625 -0.02734,-0.04687 -0.05859,-0.09766 -0.08594,-0.148437 -0.0625,-0.109375 -0.125,-0.21875 -0.1875,-0.328125 -0.04297,-0.07422 -0.08594,-0.148438 -0.128906,-0.222656 -0.04687,-0.08203 -0.09375,-0.160157 -0.140625,-0.242188 -0.0625,-0.113281 -0.128906,-0.226562 -0.195312,-0.339844 -0.02734,-0.05078 -0.05469,-0.101562 -0.08594,-0.152344 -0.01172,-0.01953 -0.02344,-0.03906 -0.03516,-0.05859 -0.101563,-0.183594 -0.101563,-0.183594 -0.207031,-0.363281 -0.0039,-0.01172 -0.01172,-0.01953 -0.01563,-0.03125 -0.01172,-0.01953 -0.02344,-0.03906 -0.03516,-0.05859 -0.03125,-0.05078 -0.05859,-0.101563 -0.08594,-0.152344 -0.06641,-0.109375 -0.128906,-0.21875 -0.191406,-0.328125 -0.03906,-0.07422 -0.08203,-0.148437 -0.128907,-0.222656 -0.04297,-0.07813 -0.08984,-0.160157 -0.136718,-0.242188 -0.06641,-0.113281 -0.128906,-0.226562 -0.195313,-0.339843 -0.02734,-0.05078 -0.05859,-0.101563 -0.08594,-0.152344 -0.01172,-0.01953 -0.02344,-0.03906 -0.03516,-0.05859 -0.02344,-0.03906 -0.04688,-0.08203 -0.07031,-0.121094 -0.0039,-0.01172 -0.01172,-0.01953 -0.01563,-0.03125 -0.01172,-0.01953 -0.02344,-0.03906 -0.03516,-0.05859 -0.03125,-0.05078 -0.05859,-0.101562 -0.08594,-0.152343 -0.0625,-0.109375 -0.125,-0.21875 -0.1875,-0.328125 -0.04297,-0.07422 -0.08594,-0.148438 -0.128906,-0.222656 -0.04687,-0.07813 -0.09375,-0.160157 -0.140625,-0.238282 -0.0625,-0.117187 -0.128906,-0.230468 -0.195313,-0.34375 -0.02734,-0.05078 -0.05859,-0.101562 -0.08594,-0.152344 -0.01172,-0.01953 -0.02344,-0.03906 -0.03516,-0.05859 -0.07031,-0.121094 -0.136719,-0.242188 -0.207031,-0.363281 -0.0078,-0.0078 -0.01172,-0.01953 -0.01953,-0.02734 -0.01172,-0.01953 -0.02344,-0.04297 -0.03516,-0.0625 -0.02734,-0.05078 -0.05469,-0.09766 -0.08594,-0.148438 -0.0625,-0.109375 -0.125,-0.21875 -0.1875,-0.328125 -0.04297,-0.07813 -0.08594,-0.152343 -0.128906,-0.226562 -0.04687,-0.07813 -0.08984,-0.160157 -0.136718,-0.238281 -0.06641,-0.113282 -0.128907,-0.230469 -0.195313,-0.34375 -0.03125,-0.05078 -0.05859,-0.09766 -0.08594,-0.148438 -0.01172,-0.01953 -0.02344,-0.04297 -0.03516,-0.0625 -0.02344,-0.03906 -0.04687,-0.07813 -0.07031,-0.121094 -0.0078,-0.01172 -0.0078,-0.01172 -0.01953,-0.02734 -0.0078,-0.01953 -0.01953,-0.04297 -0.03125,-0.0625 -0.03125,-0.04687 -0.05859,-0.09766 -0.08594,-0.148437 -0.06641,-0.109375 -0.128906,-0.21875 -0.191406,-0.328125 -0.04297,-0.07422 -0.08594,-0.152344 -0.128906,-0.226562 -0.04688,-0.07813 -0.08984,-0.15625 -0.136719,-0.238282 -0.06641,-0.113281 -0.128907,-0.226562 -0.195313,-0.34375 -0.03125,-0.04687 -0.05859,-0.09766 -0.08594,-0.148437 -0.01172,-0.01953 -0.02344,-0.03906 -0.03516,-0.0625 -0.02344,-0.03906 -0.04687,-0.07813 -0.07031,-0.117188 -0.0039,-0.01172 -0.01172,-0.02344 -0.01563,-0.03125 -0.01172,-0.01953 -0.02344,-0.03906 -0.03516,-0.0625 -0.03125,-0.04687 -0.05859,-0.09766 -0.08594,-0.148437 -0.0625,-0.109375 -0.128906,-0.21875 -0.191406,-0.328125 -0.04687,-0.08594 -0.09375,-0.167969 -0.140625,-0.25 -0.05078,-0.08594 -0.101562,-0.175781 -0.152344,-0.261719 -0.0039,-0.01172 -0.01172,-0.01953 -0.01563,-0.03125 -0.0078,-0.01172 -0.01172,-0.01953 -0.01563,-0.02734 -0.01172,-0.01953 -0.02344,-0.03516 -0.03516,-0.05469 0,-0.0078 0,-0.01563 0,-0.02734 0.0078,-0.0039 0.01563,-0.0078 0.02344,-0.01172 0.175781,-0.08984 0.175781,-0.08984 0.351562,-0.179687 0.226562,-0.121094 0.457031,-0.238281 0.6875,-0.355469 0.03906,-0.01953 0.07422,-0.03516 0.109375,-0.05469 0.152344,-0.07422 0.300781,-0.148437 0.453125,-0.222656 0.03125,-0.01563 0.0625,-0.03125 0.09766,-0.04687 0.121094,-0.05859 0.242188,-0.117187 0.367188,-0.175781 0.08594,-0.03906 0.167968,-0.07813 0.253906,-0.117188 0.128906,-0.0625 0.257812,-0.125 0.390625,-0.183593 0.08984,-0.03906 0.183594,-0.08203 0.273437,-0.125 0.148438,-0.07031 0.300782,-0.136719 0.449219,-0.207031 0.02344,-0.0078 0.04297,-0.01953 0.06641,-0.02734 0.09766,-0.04297 0.195312,-0.08594 0.292968,-0.132813 0.05469,-0.02344 0.109375,-0.04687 0.164063,-0.07031 0.363281,-0.164063 0.726562,-0.320313 1.09375,-0.476563 0.07031,-0.03125 0.144531,-0.0625 0.214843,-0.09375 0.234376,-0.101562 0.46875,-0.199218 0.703126,-0.300781 0.03906,-0.01172 0.07422,-0.02734 0.109374,-0.04297 0.121094,-0.05078 0.242188,-0.101562 0.363282,-0.152344 0.0078,-0.0039 0.01563,-0.0078 0.02344,-0.01172 0.242188,-0.101563 0.488281,-0.199219 0.734375,-0.300782 0.02734,-0.01172 0.05859,-0.02344 0.08594,-0.03516 0.246094,-0.101562 0.492187,-0.203125 0.734375,-0.300781 0.06641,-0.02344 0.128906,-0.05078 0.191406,-0.07422 0.269531,-0.109375 0.542969,-0.21875 0.8125,-0.324218 0.07813,-0.03125 0.152344,-0.05859 0.230469,-0.08984 0.714844,-0.28125 1.433594,-0.5625 2.15625,-0.832032 0.05078,-0.01953 0.105468,-0.04297 0.15625,-0.0625 0.371094,-0.136718 0.738281,-0.277343 1.109375,-0.414062 0.03125,-0.01172 0.06641,-0.02344 0.09766,-0.03516 0.527344,-0.195313 1.054687,-0.390625 1.578125,-0.578125 0.01172,-0.0039 0.02344,-0.0078 0.03125,-0.01172 0.421875,-0.152344 0.84375,-0.304688 1.265625,-0.453125 0.128906,-0.04687 0.253906,-0.08984 0.382813,-0.136719 0.203124,-0.07422 0.410156,-0.144531 0.617187,-0.214844 0.05859,-0.02344 0.117187,-0.04297 0.175781,-0.0625 0.01172,-0.0039 0.01172,-0.0039 0.02344,-0.0078 0.0078,-0.0039 0.01563,-0.0078 0.02344,-0.0078 0.386719,-0.136719 0.773438,-0.269532 1.160157,-0.402344 0.01953,-0.0039 0.03516,-0.01172 0.05469,-0.01563 0.0078,-0.0039 0.01563,-0.0078 0.02734,-0.01172 0.05859,-0.01953 0.117187,-0.03906 0.179687,-0.05859 0.234375,-0.08203 0.46875,-0.164062 0.703125,-0.242187 0.03906,-0.01172 0.07422,-0.02344 0.113281,-0.03516 0.191407,-0.06641 0.386719,-0.132812 0.582032,-0.199218 0.01172,-0.0039 0.01172,-0.0039 0.02344,-0.0078 0.117188,-0.03906 0.230469,-0.07422 0.347657,-0.113281 0.0078,-0.0039 0.01953,-0.0078 0.02734,-0.01172 0.01563,-0.0039 0.03125,-0.0078 0.04687,-0.01172 0.101563,-0.03516 0.207032,-0.07031 0.308594,-0.101562 0.01563,-0.0039 0.02734,-0.01172 0.04297,-0.01563 0.02344,-0.0078 0.04687,-0.01563 0.07031,-0.02344 0.238281,-0.07813 0.476563,-0.15625 0.714844,-0.234376 0.01953,-0.0039 0.03516,-0.01172 0.05469,-0.01562 0.0078,-0.0039 0.01953,-0.0078 0.02734,-0.0078 0.07813,-0.02734 0.15625,-0.05078 0.230469,-0.07813 0.0078,0 0.01563,-0.0039 0.01953,-0.0039 0.02734,-0.0078 0.05078,-0.01563 0.07813,-0.02344 0.273438,-0.08984 0.546875,-0.179687 0.820313,-0.265625 0.05859,-0.01953 0.121094,-0.03516 0.179687,-0.05469 0.371094,-0.117188 0.742188,-0.234375 1.109375,-0.347656 0.09375,-0.02734 0.183594,-0.05469 0.273438,-0.08594 0.378906,-0.117188 0.761718,-0.230469 1.144531,-0.347656 0.105469,-0.03125 0.210937,-0.0625 0.320313,-0.09375 0.742187,-0.226563 1.492187,-0.441406 3.890624,-1.113282 0.01172,-0.00391 0.01172,-0.00391 0.02344,-0.00391 0.449219,-0.125 0.898438,-0.242187 1.347656,-0.359375 0.04687,-0.011719 0.09766,-0.027343 0.144532,-0.039062 0.84375,-0.21875 1.691406,-0.429688 4.199218,-0.996094 0.01172,-0.00391 0.01172,-0.00391 0.02344,-0.00781 0.210937,-0.042968 0.425781,-0.089843 0.640625,-0.132812 0.01172,-0.00391 0.01172,-0.00391 0.02734,-0.00391 0.570313,-0.117188 1.144532,-0.230469 1.71875,-0.332032 0.01172,0 0.01953,0 0.02734,-0.00391 0.117188,-0.019531 0.234375,-0.039062 0.351563,-0.058594 0.02344,-0.00391 0.04687,-0.00781 0.07031,-0.011718 0.03516,-0.00781 0.07031,-0.015625 0.105469,-0.019532 0.01563,-0.00391 0.02734,-0.00391 0.03906,-0.00781 0.125,-0.019531 0.234376,-0.019531 0.355469,0 z m 0,0"
         id="path1" /><path
         style="fill:#e64c2b;fill-opacity:1;fill-rule:nonzero;stroke:none"
         d="m 50.007812,20.347656 c 0.0078,0.0039 0.01563,0.0078 0.02344,0.01172 0.01172,0.0039 0.01953,0.01172 0.03125,0.01563 0.01172,0.0078 0.01953,0.01563 0.03125,0.01953 0.0078,0.0039 0.01172,0.0078 0.01953,0.01172 0.01953,0.01172 0.03906,0.02344 0.05859,0.03516 0.01172,0.0078 0.02734,0.01563 0.03906,0.02344 0.08203,0.04687 0.160156,0.09766 0.238281,0.144531 0.07031,0.04687 0.140625,0.08594 0.210937,0.128906 0.109375,0.06641 0.21875,0.132813 0.328125,0.199219 0.02344,0.01563 0.05078,0.03125 0.07422,0.04687 0.105469,0.0625 0.210938,0.128906 0.3125,0.191406 0.06641,0.04297 0.132812,0.08203 0.199219,0.121094 0.07422,0.04687 0.148437,0.09375 0.222656,0.136719 0.06641,0.04297 0.128906,0.08203 0.195313,0.121094 0.08594,0.05469 0.171874,0.109374 0.257812,0.164062 0.07031,0.03906 0.136719,0.08203 0.203125,0.125 0.105469,0.06641 0.210937,0.128906 0.316406,0.195312 0.02734,0.01953 0.05469,0.03516 0.08594,0.05469 0.08984,0.05469 0.179687,0.113281 0.273437,0.171875 0.05859,0.03516 0.117188,0.07422 0.175782,0.113281 0.08984,0.05469 0.175781,0.109375 0.265624,0.164063 0.01953,0.01563 0.04297,0.02734 0.0625,0.04297 0.105469,0.06641 0.207032,0.128906 0.3125,0.195312 0.04297,0.02734 0.08594,0.05469 0.128907,0.08203 0.01563,0.01172 0.03125,0.02344 0.05078,0.03125 0.0078,0.0078 0.01563,0.01172 0.02344,0.01953 0.02734,0.01563 0.05078,0.03125 0.07812,0.04688 0.01172,0.0078 0.01172,0.0078 0.02344,0.01562 0.01563,0.01172 0.03516,0.02344 0.05078,0.03516 0.04297,0.02734 0.08594,0.05469 0.128907,0.08203 0.08203,0.05078 0.164062,0.105469 0.246093,0.15625 0.05859,0.03906 0.117188,0.07813 0.175781,0.113281 0.08594,0.05469 0.171876,0.109375 0.257813,0.164063 0.02344,0.01953 0.05078,0.03516 0.07422,0.05078 0.07031,0.04687 0.144531,0.09375 0.214844,0.140625 0.05078,0.03125 0.09766,0.0625 0.148437,0.09375 0.09766,0.06641 0.195313,0.128906 0.292969,0.191406 0.01172,0.01172 0.01172,0.01172 0.02734,0.01953 0.238281,0.15625 0.480468,0.316406 0.71875,0.476562 0.01953,0.0078 0.03516,0.01953 0.05469,0.03125 0.113281,0.07813 0.226563,0.152344 0.339844,0.226562 0.03516,0.02734 0.07422,0.05078 0.113281,0.07813 0.183594,0.125 0.371094,0.246093 0.554688,0.375 0.08984,0.05859 0.175781,0.117187 0.265624,0.175781 0.07031,0.04687 0.140626,0.09375 0.210938,0.140625 0.01172,0.01172 0.02344,0.01953 0.03516,0.02734 0.03516,0.02344 0.07422,0.04687 0.109375,0.07422 0.0039,0.0039 0.01172,0.0078 0.01563,0.01172 0.242188,0.164063 0.484375,0.328125 0.722656,0.496094 0.02734,0.01563 0.05078,0.03125 0.07422,0.05078 0.01172,0.0078 0.02734,0.01563 0.03906,0.02344 0.02734,0.01953 0.05859,0.04297 0.08984,0.0625 0.08203,0.05859 0.164062,0.113281 0.246093,0.171874 0.05078,0.03516 0.101563,0.07031 0.15625,0.105469 0.05859,0.04297 0.121094,0.08594 0.183594,0.128907 0.05859,0.04297 0.121094,0.08594 0.179687,0.128906 0.06641,0.04687 0.136719,0.09375 0.203126,0.140625 0.05078,0.03516 0.101562,0.07031 0.152343,0.105469 0.07422,0.05469 0.152344,0.109374 0.230469,0.164062 0.01953,0.01563 0.03906,0.02734 0.05859,0.04297 0.06641,0.04687 0.132812,0.09375 0.199218,0.140625 0.05859,0.04297 0.117188,0.08594 0.175782,0.128906 0.08203,0.05469 0.160156,0.113281 0.242187,0.171875 0.02734,0.01953 0.05469,0.03906 0.08203,0.05859 0.05469,0.03906 0.113282,0.08203 0.167969,0.121093 0.04297,0.03125 0.08594,0.0625 0.128907,0.09375 0.05469,0.03906 0.113281,0.07813 0.167968,0.121094 0.04297,0.03125 0.08594,0.05859 0.125,0.08984 0.07031,0.05078 0.140625,0.101562 0.210938,0.152344 0.02734,0.01953 0.05469,0.03906 0.08594,0.05859 0.01172,0.01172 0.02734,0.02344 0.03906,0.03125 0.03516,0.02734 0.07031,0.05078 0.105468,0.07422 0.07813,0.05859 0.15625,0.117188 0.234376,0.171875 0.05078,0.03906 0.09766,0.07422 0.148437,0.109375 0.07813,0.05859 0.160156,0.117188 0.238281,0.175782 0.03516,0.02734 0.07031,0.05469 0.109375,0.08203 0.01563,0.0078 0.02734,0.01953 0.04297,0.03125 0.0078,0.0039 0.01563,0.01172 0.02344,0.01563 0.01953,0.01563 0.04297,0.03125 0.06641,0.05078 0.0039,0.0039 0.01172,0.0078 0.01953,0.01563 0.01563,0.0078 0.03125,0.01953 0.04297,0.03125 0.03906,0.02734 0.07422,0.05469 0.109375,0.08203 0.08594,0.0625 0.171875,0.125 0.253906,0.191407 0.08203,0.0625 0.167969,0.121093 0.25,0.183593 0.09375,0.07031 0.1875,0.136719 0.277344,0.210938 0.101562,0.07422 0.199219,0.152343 0.300781,0.226562 0.06641,0.04687 0.132812,0.09766 0.195312,0.148438 0.04688,0.03516 0.08984,0.07031 0.136719,0.105469 0.117188,0.08594 0.230469,0.175781 0.347657,0.265624 0.01953,0.01172 0.03906,0.02734 0.05859,0.04297 0.01172,0.0078 0.01953,0.01563 0.03125,0.02344 0.0039,0.0039 0.0078,0.0078 0.01563,0.01172 0.01563,0.01172 0.02734,0.02344 0.04297,0.03516 0.0039,0.0039 0.01172,0.0078 0.01563,0.01172 0.01172,0.0078 0.01953,0.01563 0.03125,0.02344 0.02344,0.01953 0.04687,0.03906 0.07422,0.05859 0.0625,0.05078 0.128906,0.101562 0.195312,0.152344 0.03906,0.03125 0.08203,0.0625 0.121094,0.09375 0.113281,0.08594 0.226563,0.175781 0.339844,0.265624 0.02734,0.01953 0.05469,0.04297 0.08203,0.0625 0.0078,0.0078 0.01953,0.01953 0.03125,0.02734 0.0039,0.0039 0.01172,0.0078 0.01563,0.01172 0.05859,0.04687 0.121094,0.09375 0.179687,0.140625 0.0039,0.0039 0.0078,0.0078 0.01563,0.01172 0.01172,0.0078 0.01953,0.01953 0.03125,0.02734 0.02734,0.01953 0.05469,0.03906 0.08203,0.0625 0.0625,0.05078 0.125,0.101563 0.191406,0.152344 0.03516,0.03125 0.07422,0.0625 0.113281,0.08984 0.05078,0.03906 0.101563,0.08203 0.152344,0.121094 0.03906,0.03516 0.07813,0.06641 0.121094,0.09766 0.05078,0.04297 0.105468,0.08594 0.15625,0.128906 0.03906,0.03125 0.07813,0.0625 0.121094,0.09375 0.05469,0.04297 0.109374,0.08984 0.164062,0.136719 0.04297,0.03125 0.08203,0.06641 0.125,0.09766 0.05078,0.04297 0.101562,0.08594 0.152344,0.125 0.01953,0.01563 0.03906,0.03125 0.05859,0.04687 0.07031,0.05859 0.140624,0.117188 0.210937,0.175782 0.01563,0.01172 0.03516,0.02734 0.05078,0.03906 0.101563,0.08594 0.101563,0.08594 0.128906,0.105469 0.01563,0.01172 0.03125,0.02734 0.04688,0.03906 0.05469,0.04297 0.105468,0.08594 0.15625,0.128907 0.02734,0.02734 0.05859,0.05078 0.08984,0.07422 0.03906,0.03516 0.07813,0.06641 0.121094,0.101563 0.03125,0.02734 0.0625,0.05469 0.09375,0.08203 0.04297,0.03125 0.08594,0.07031 0.128906,0.105469 0.03125,0.02734 0.0625,0.05078 0.09375,0.07813 0.04297,0.03516 0.08594,0.07031 0.125,0.105468 0.03125,0.02734 0.06641,0.05469 0.09766,0.07813 0.04297,0.03906 0.08984,0.07422 0.132812,0.113281 0.03125,0.02734 0.0625,0.05469 0.09766,0.08203 0.04687,0.03906 0.09375,0.07813 0.136719,0.121094 0.03516,0.02734 0.07031,0.05469 0.105469,0.08594 0.05078,0.04297 0.101562,0.08594 0.152344,0.128907 0.03516,0.03125 0.06641,0.05859 0.101562,0.08984 0.0039,0.0039 0.01172,0.0078 0.01563,0.01172 0.01172,0.0078 0.01953,0.01953 0.03125,0.02734 0.02734,0.02344 0.05469,0.04687 0.08203,0.07031 0.01172,0.0078 0.01953,0.01953 0.03125,0.02734 0.02344,0.01953 0.04297,0.03906 0.06641,0.05469 0.0039,0.0078 0.0078,0.01172 0.01563,0.01562 0.01172,0.0078 0.01953,0.01953 0.03125,0.02734 0.02734,0.02344 0.05469,0.04687 0.08203,0.07031 0.07031,0.0625 0.144531,0.125 0.21875,0.1875 0.01563,0.01563 0.03516,0.03125 0.05078,0.04687 0.05078,0.04297 0.101562,0.08984 0.152344,0.132812 0.03125,0.02734 0.0625,0.05469 0.09375,0.08203 0.04297,0.03516 0.08594,0.07422 0.128906,0.113281 0.03125,0.02734 0.0625,0.05469 0.09375,0.08203 0.05078,0.04297 0.101562,0.08594 0.152344,0.132812 0.02734,0.02734 0.05469,0.05469 0.08594,0.07813 0.01953,0.01953 0.03906,0.03906 0.0625,0.05469 0.03125,0.03125 0.06641,0.05859 0.09766,0.08594 0.03516,0.03125 0.07031,0.05859 0.101562,0.08984 0.01953,0.02344 0.04297,0.04297 0.06641,0.06641 0.02344,0.01953 0.04687,0.03906 0.06641,0.05859 0.02734,0.02344 0.05469,0.04687 0.08203,0.07031 0.03906,0.03516 0.07422,0.06641 0.109375,0.101562 0.02734,0.02344 0.05078,0.04687 0.07813,0.06641 0.03516,0.03516 0.07031,0.06641 0.105468,0.09766 0.02734,0.02344 0.05078,0.04687 0.07813,0.07031 0.03516,0.03125 0.07031,0.0625 0.105468,0.09766 0.03125,0.02734 0.05859,0.05078 0.08984,0.07813 0.04687,0.04297 0.09375,0.08984 0.144531,0.132812 0.01953,0.01953 0.04297,0.04297 0.06641,0.0625 0.01172,0.0078 0.01953,0.01953 0.02734,0.02734 0.0078,0.0039 0.0078,0.0039 0.01563,0.01172 0.01563,0.01172 0.02734,0.02344 0.04297,0.03906 0.0039,0.0039 0.0078,0.0078 0.01172,0.01172 0.01172,0.0078 0.01953,0.01563 0.02734,0.02734 0.02344,0.01953 0.04687,0.03906 0.07031,0.0625 0.0625,0.05859 0.125,0.113281 0.1875,0.171874 0.01563,0.01563 0.03125,0.02734 0.04687,0.04297 0.05859,0.05469 0.117187,0.109375 0.175781,0.164063 0.03906,0.03516 0.07422,0.07031 0.113282,0.105468 0.109374,0.101563 0.214843,0.203126 0.324218,0.304688 0.02734,0.02734 0.05469,0.05078 0.08203,0.07813 0.0625,0.05859 0.121093,0.113281 0.179687,0.175781 0.01953,0.01563 0.03516,0.03125 0.05469,0.04687 0.03906,0.03516 0.07422,0.07031 0.113282,0.109375 0.02734,0.02734 0.05078,0.05078 0.08203,0.07813 0.04687,0.03906 0.08984,0.08594 0.136719,0.132813 0.02734,0.03125 0.05859,0.05859 0.09375,0.08984 0.05469,0.04687 0.101562,0.09766 0.152344,0.148437 0.01172,0.01172 0.02734,0.02734 0.03906,0.03906 0.01172,0.01172 0.01172,0.01172 0.02344,0.02344 0.01953,0.01953 0.03906,0.03906 0.0625,0.05469 0.03906,0.03516 0.07812,0.07422 0.113281,0.113282 0.01172,0.01172 0.01172,0.01172 0.02344,0.01953 0.03125,0.03125 0.05859,0.0625 0.08984,0.09375 0.02344,0.01953 0.04297,0.04297 0.06641,0.06641 0.0078,0.0078 0.0078,0.0078 0.01953,0.01953 0.0078,0.0078 0.01172,0.01172 0.01953,0.01953 0.0078,0.0078 0.01172,0.01172 0.01563,0.01563 0.01953,0.01953 0.03906,0.03516 0.05469,0.05078 0.04687,0.04297 0.09375,0.08594 0.136719,0.128906 0.0078,0.01172 0.01953,0.01953 0.02734,0.02734 0.02344,0.02734 0.05078,0.05078 0.07422,0.07813 0.02734,0.02344 0.05469,0.05078 0.07813,0.07813 0.04687,0.04297 0.08984,0.08984 0.132812,0.132812 0.05078,0.05078 0.101562,0.101563 0.152344,0.152344 0.04687,0.04297 0.08984,0.08984 0.132812,0.132813 0.02734,0.02734 0.05078,0.05078 0.07813,0.07813 0.02344,0.02344 0.05078,0.05078 0.07422,0.07422 0.01172,0.01172 0.02734,0.02734 0.03906,0.03906 0.04297,0.04297 0.08203,0.08203 0.121094,0.128906 0.01563,0.01953 0.03125,0.03516 0.04687,0.05078 0.0078,0.0078 0.01172,0.01172 0.01953,0.01953 0.0078,0.0078 0.01172,0.01172 0.01953,0.01953 0.0078,0.0078 0.01563,0.01563 0.02344,0.02344 0.01953,0.01953 0.04297,0.04297 0.0625,0.0625 0.03125,0.03125 0.05859,0.05859 0.08984,0.08984 0.0039,0.0039 0.01172,0.01172 0.01953,0.01953 0.03516,0.03516 0.07031,0.07422 0.105469,0.113281 0.01563,0.01953 0.03125,0.03516 0.05078,0.05469 0.0039,0.0039 0.01172,0.01172 0.01563,0.01563 0.0078,0.0078 0.01563,0.01172 0.01953,0.01953 0.0078,0.0078 0.01172,0.01172 0.01953,0.01953 0.01563,0.01563 0.03125,0.03125 0.04687,0.04687 -0.01172,0.03516 -0.02734,0.07031 -0.04687,0.101562 -0.0078,0.01563 -0.0078,0.01563 -0.01563,0.03125 -0.0078,0.01563 -0.0078,0.01563 -0.01953,0.03125 -0.0039,0.0078 -0.01172,0.01953 -0.01563,0.03125 -0.01562,0.02344 -0.02734,0.04297 -0.03906,0.06641 -0.03125,0.05078 -0.0625,0.101562 -0.08984,0.152343 -0.01172,0.02344 -0.02344,0.04297 -0.03516,0.0625 -0.0039,0.0078 -0.01172,0.01953 -0.01563,0.03125 -0.574219,0.992188 -1.144531,1.988281 -3.816406,6.628907 -0.01172,0.01953 -0.02344,0.04297 -0.03125,0.0625 -0.03125,0.05078 -0.05859,0.09766 -0.08984,0.148437 -0.0625,0.109375 -0.125,0.21875 -0.1875,0.328125 -0.04687,0.08594 -0.09375,0.167969 -0.144531,0.253906 -0.03906,0.07031 -0.08203,0.140625 -0.121094,0.210938 -0.05078,0.08984 -0.101562,0.179687 -0.15625,0.269531 -0.03906,0.07031 -0.08203,0.140625 -0.121094,0.214844 -0.05078,0.08984 -0.101562,0.179687 -0.15625,0.265625 -0.03906,0.07422 -0.08203,0.144531 -0.121094,0.214844 -0.05078,0.08984 -0.101562,0.179687 -0.15625,0.269531 -0.03906,0.07031 -0.08203,0.140625 -0.121093,0.214843 -0.05078,0.08984 -0.101563,0.179688 -0.15625,0.265626 -0.03906,0.07422 -0.08203,0.144531 -0.121094,0.214843 -0.05078,0.08984 -0.101563,0.179688 -0.15625,0.269531 -0.03906,0.07031 -0.08203,0.140626 -0.121094,0.214844 -0.05078,0.08984 -0.101562,0.179688 -0.15625,0.265625 -0.03906,0.07422 -0.08203,0.144531 -0.121093,0.214844 -0.05078,0.08984 -0.101563,0.179687 -0.15625,0.269531 -0.03906,0.07031 -0.08203,0.140625 -0.121094,0.214844 -0.05078,0.08984 -0.101563,0.175781 -0.15625,0.265625 -0.04297,0.07422 -0.08203,0.148437 -0.125,0.21875 -0.05078,0.08984 -0.101563,0.179687 -0.152344,0.265625 -0.03125,-0.01563 -0.03516,-0.04297 -0.04687,-0.07031 -0.0039,-0.0078 -0.0039,-0.01172 -0.0078,-0.01953 -0.0039,-0.01563 -0.01172,-0.02734 -0.01562,-0.04297 -0.01563,-0.03906 -0.03125,-0.07813 -0.04688,-0.117188 -0.0039,-0.0078 -0.0078,-0.01563 -0.01172,-0.02344 -0.03906,-0.09766 -0.07813,-0.195312 -0.117188,-0.292968 -0.0078,-0.01172 -0.0078,-0.01172 -0.01172,-0.02734 -0.07031,-0.171875 -0.144532,-0.347656 -0.214844,-0.519531 -0.0039,-0.0078 -0.0078,-0.01172 -0.0078,-0.01953 -0.164062,-0.394532 -0.332031,-0.785157 -0.5,-1.175782 -0.0078,-0.01563 -0.01563,-0.03125 -0.01953,-0.04297 -0.04687,-0.109376 -0.09375,-0.214844 -0.140625,-0.320313 0,-0.0078 -0.0039,-0.01563 -0.0078,-0.02344 -0.199218,-0.457032 -0.402343,-0.914063 -0.613281,-1.371094 -0.02734,-0.0625 -0.05859,-0.128906 -0.08594,-0.191406 -0.132813,-0.296876 -0.269532,-0.59375 -0.410156,-0.890626 -0.02734,-0.05859 -0.05469,-0.117187 -0.08203,-0.175781 -0.01172,-0.01953 -0.01953,-0.03906 -0.02734,-0.05859 -0.02734,-0.05859 -0.05859,-0.117188 -0.08594,-0.175782 -0.07422,-0.164062 -0.152344,-0.324218 -0.230469,-0.488281 -0.0039,-0.0078 -0.0078,-0.01172 -0.0078,-0.01953 -0.0078,-0.0078 -0.0078,-0.0078 -0.01172,-0.01953 -0.02734,-0.05469 -0.05078,-0.105468 -0.07813,-0.160156 -0.05469,-0.121094 -0.113281,-0.242187 -0.171875,-0.359375 -0.01953,-0.03906 -0.03906,-0.07813 -0.05469,-0.117187 -0.152344,-0.3125 -0.308594,-0.625 -0.464844,-0.9375 -0.02734,-0.05469 -0.05469,-0.113282 -0.08203,-0.167969 -0.02734,-0.05469 -0.05469,-0.109375 -0.08203,-0.164063 -0.01563,-0.03125 -0.03125,-0.0625 -0.04687,-0.09375 -0.0625,-0.125 -0.125,-0.253906 -0.191406,-0.375 -0.02344,-0.04687 -0.04687,-0.08984 -0.07031,-0.136718 -0.03125,-0.07031 -0.06641,-0.136719 -0.101563,-0.203125 -0.04297,-0.08203 -0.08594,-0.164063 -0.128906,-0.246094 -0.05078,-0.105469 -0.105469,-0.207031 -0.160157,-0.308594 -0.01562,-0.03125 -0.03125,-0.0625 -0.04687,-0.08984 -0.04688,-0.08984 -0.08984,-0.175782 -0.136719,-0.265626 -0.04297,-0.07422 -0.08203,-0.152343 -0.125,-0.226562 -0.03906,-0.08594 -0.08594,-0.167969 -0.128907,-0.25 -0.04297,-0.07813 -0.08594,-0.15625 -0.128906,-0.238281 -0.05469,-0.105469 -0.109375,-0.210938 -0.167968,-0.3125 -0.01953,-0.03516 -0.03516,-0.07031 -0.05469,-0.101563 -0.05078,-0.09375 -0.101562,-0.1875 -0.152344,-0.28125 -0.03906,-0.07031 -0.07813,-0.140625 -0.117187,-0.214844 -0.03516,-0.07031 -0.07422,-0.136718 -0.113281,-0.207031 -0.01953,-0.03516 -0.04297,-0.07422 -0.0625,-0.113281 -0.06641,-0.121094 -0.136719,-0.242188 -0.203126,-0.363281 -0.01953,-0.03906 -0.04297,-0.07813 -0.0625,-0.117188 -0.01172,-0.01953 -0.02344,-0.03906 -0.03516,-0.05859 -0.02734,-0.04688 -0.05469,-0.09766 -0.08203,-0.144532 -0.0625,-0.113281 -0.125,-0.226562 -0.191406,-0.339844 -0.02344,-0.04687 -0.05078,-0.08984 -0.07813,-0.136718 -0.0078,-0.01563 -0.01563,-0.03516 -0.02734,-0.05078 -0.02734,-0.05078 -0.05469,-0.09766 -0.08594,-0.148437 -0.0665,-0.117214 -0.132902,-0.234402 -0.199308,-0.35159 -0.03906,-0.06641 -0.07813,-0.136718 -0.117188,-0.203124 -0.06641,-0.113282 -0.132812,-0.230469 -0.199218,-0.34375 -0.0039,-0.0078 -0.0039,-0.0078 -0.01172,-0.01563 -0.121094,-0.210937 -0.246094,-0.425781 -0.375,-0.636718 -0.03516,-0.06641 -0.07422,-0.128906 -0.113281,-0.191406 -0.08594,-0.152344 -0.175782,-0.300782 -0.265626,-0.449219 -0.03125,-0.05078 -0.05859,-0.09766 -0.08984,-0.144531 -0.0078,-0.01953 -0.01953,-0.03516 -0.02734,-0.05078 -0.03125,-0.04687 -0.0625,-0.09766 -0.08984,-0.144531 -0.08594,-0.140625 -0.171875,-0.28125 -0.257812,-0.421875 -0.02344,-0.04297 -0.05078,-0.08203 -0.07422,-0.121094 -0.01172,-0.01953 -0.02344,-0.03906 -0.03516,-0.0625 -0.03125,-0.05078 -0.0625,-0.101562 -0.09375,-0.152344 -0.05859,-0.09375 -0.121094,-0.191406 -0.179688,-0.285156 -0.03906,-0.0625 -0.07813,-0.125 -0.113281,-0.1875 -0.0625,-0.101562 -0.128906,-0.203125 -0.191406,-0.304687 -0.02344,-0.03516 -0.04687,-0.07422 -0.07031,-0.113281 -0.0039,-0.0039 -0.01172,-0.01172 -0.01563,-0.01953 -0.01563,-0.03125 -0.03516,-0.05859 -0.05469,-0.08594 -0.109375,-0.179688 -0.222656,-0.355469 -0.335938,-0.53125 -0.02344,-0.03906 -0.05078,-0.08203 -0.07422,-0.121094 -0.07422,-0.113281 -0.144532,-0.222656 -0.21875,-0.335937 -0.01953,-0.03125 -0.04297,-0.06641 -0.0625,-0.09766 -0.171876,-0.265625 -0.339844,-0.527343 -0.511719,-0.789062 -0.03125,-0.04687 -0.06641,-0.09766 -0.09766,-0.144531 -0.144531,-0.222657 -0.292968,-0.445313 -0.441406,-0.667969 -0.04297,-0.0625 -0.08594,-0.125 -0.128906,-0.1875 -0.05859,-0.09375 -0.121094,-0.1875 -0.183594,-0.277344 C 58.53125,32.5 58.5,32.453125 58.46875,32.402344 c -0.101562,-0.148438 -0.203125,-0.300782 -0.308594,-0.449219 -0.01563,-0.02344 -0.03125,-0.04687 -0.05078,-0.07422 -0.0078,-0.01172 -0.01563,-0.02344 -0.02344,-0.03516 -0.01953,-0.03125 -0.04297,-0.0625 -0.0625,-0.08984 -0.06641,-0.101562 -0.136719,-0.203125 -0.207032,-0.300781 -0.03125,-0.04687 -0.0625,-0.08984 -0.09375,-0.132813 -0.01172,-0.01953 -0.02344,-0.03906 -0.03516,-0.05469 -0.02344,-0.03516 -0.05078,-0.07031 -0.07422,-0.109375 C 57.5,30.996094 57.386719,30.835938 57.273438,30.675781 c -0.01563,-0.02734 -0.03516,-0.05469 -0.05469,-0.07813 -0.0078,-0.01563 -0.01563,-0.02734 -0.02734,-0.03906 -0.02344,-0.03516 -0.04687,-0.06641 -0.06641,-0.101563 -0.05469,-0.07422 -0.105469,-0.148437 -0.160156,-0.222656 -0.03906,-0.05078 -0.07813,-0.105469 -0.113282,-0.160156 -0.03516,-0.04687 -0.07031,-0.09375 -0.101562,-0.140625 -0.03906,-0.05469 -0.07813,-0.109375 -0.117188,-0.164063 -0.05078,-0.07422 -0.105468,-0.148437 -0.160156,-0.226562 -0.02344,-0.03125 -0.05078,-0.06641 -0.07422,-0.101563 -0.0078,-0.0078 -0.01172,-0.01563 -0.01563,-0.02344 -0.02734,-0.03125 -0.05078,-0.06641 -0.07422,-0.101563 -0.05859,-0.07813 -0.113282,-0.160156 -0.171875,-0.238281 -0.03906,-0.04687 -0.07422,-0.09766 -0.109375,-0.148437 -0.05859,-0.07813 -0.113282,-0.15625 -0.171875,-0.238282 -0.02734,-0.03516 -0.05469,-0.07422 -0.08203,-0.109375 -0.01172,-0.01563 -0.02344,-0.02734 -0.03125,-0.04297 -0.06641,-0.08984 -0.06641,-0.08984 -0.08203,-0.109374 -0.01172,-0.01563 -0.02344,-0.03125 -0.03125,-0.04688 -0.02734,-0.03516 -0.05469,-0.07031 -0.08203,-0.109374 -0.0625,-0.08594 -0.128906,-0.171876 -0.191406,-0.257813 -0.03906,-0.04687 -0.07422,-0.09766 -0.109375,-0.148437 -0.04297,-0.05859 -0.08594,-0.113282 -0.128906,-0.167969 -0.03906,-0.05469 -0.08203,-0.109375 -0.121094,-0.164063 -0.05078,-0.07031 -0.101563,-0.140625 -0.15625,-0.210937 -0.04297,-0.05469 -0.08594,-0.113281 -0.125,-0.167969 -0.05859,-0.07422 -0.117188,-0.152344 -0.171875,-0.226562 -0.03125,-0.03906 -0.0625,-0.07813 -0.08984,-0.117188 -0.0078,-0.01172 -0.0078,-0.01172 -0.01953,-0.02344 -0.03125,-0.04297 -0.0625,-0.08594 -0.09375,-0.128906 -0.0625,-0.07813 -0.121094,-0.15625 -0.179688,-0.230468 -0.02344,-0.03125 -0.04297,-0.05859 -0.06641,-0.08594 -0.05078,-0.07031 -0.105469,-0.140625 -0.15625,-0.207031 -0.03906,-0.04687 -0.07422,-0.09375 -0.109375,-0.140625 -0.05859,-0.07813 -0.117187,-0.152344 -0.175781,-0.226563 -0.02344,-0.03516 -0.05078,-0.07031 -0.07813,-0.105469 -0.01172,-0.01172 -0.02344,-0.02734 -0.03516,-0.03906 -0.01953,-0.03125 -0.04297,-0.05859 -0.0625,-0.08594 -0.0625,-0.07812 -0.125,-0.160156 -0.1875,-0.238281 -0.01953,-0.02734 -0.04297,-0.05469 -0.0625,-0.08203 -0.0078,-0.0078 -0.01562,-0.01953 -0.02734,-0.03125 -0.152344,-0.195312 -0.152344,-0.195312 -0.164063,-0.210938 -0.0078,-0.01172 -0.01563,-0.02344 -0.02344,-0.03125 -0.02344,-0.02734 -0.04297,-0.05469 -0.0625,-0.08203 -0.04687,-0.05859 -0.09375,-0.117187 -0.140625,-0.171875 -0.04297,-0.05469 -0.08594,-0.109375 -0.125,-0.164062 -0.03516,-0.04297 -0.06641,-0.08203 -0.101563,-0.125 -0.03125,-0.03906 -0.0625,-0.07813 -0.09375,-0.121094 -0.03906,-0.04297 -0.07422,-0.08984 -0.113281,-0.136719 -0.03516,-0.04687 -0.07422,-0.09375 -0.109375,-0.140625 -0.04687,-0.05859 -0.09766,-0.117187 -0.144531,-0.179687 -0.01953,-0.02344 -0.04297,-0.05078 -0.0625,-0.07813 -0.03516,-0.04297 -0.06641,-0.08203 -0.09766,-0.121094 -0.03516,-0.03906 -0.06641,-0.08203 -0.09766,-0.121094 -0.04687,-0.05859 -0.09375,-0.117187 -0.140625,-0.175781 -0.02734,-0.03125 -0.05078,-0.0625 -0.07813,-0.09375 -0.0078,-0.01172 -0.01953,-0.02344 -0.02734,-0.03516 -0.02344,-0.02734 -0.04297,-0.05078 -0.0625,-0.07813 -0.05859,-0.07031 -0.113282,-0.140625 -0.171876,-0.210938 -0.01562,-0.01563 -0.02734,-0.03516 -0.04297,-0.05078 -0.0078,-0.01172 -0.0078,-0.01172 -0.01953,-0.02734 -0.01562,-0.01563 -0.02734,-0.03125 -0.03906,-0.04687 -0.05859,-0.07422 -0.117188,-0.144531 -0.179688,-0.214844 -0.01953,-0.02734 -0.04297,-0.05469 -0.0625,-0.08203 -0.01172,-0.01172 -0.02344,-0.02344 -0.03516,-0.03906 -0.02734,-0.03125 -0.05469,-0.06641 -0.08203,-0.09766 -0.05078,-0.06641 -0.105469,-0.132812 -0.160156,-0.195312 -0.03516,-0.03906 -0.06641,-0.07813 -0.09766,-0.121094 -0.02344,-0.02734 -0.04687,-0.05469 -0.07422,-0.08594 -0.03516,-0.04297 -0.07422,-0.08984 -0.109375,-0.136719 -0.02344,-0.02734 -0.05078,-0.05469 -0.07422,-0.08594 -0.03906,-0.04297 -0.07422,-0.08984 -0.113281,-0.136718 -0.02344,-0.02734 -0.04687,-0.05469 -0.07031,-0.08594 -0.05469,-0.0625 -0.105468,-0.125 -0.15625,-0.191406 -0.0078,-0.0078 -0.01563,-0.01563 -0.02344,-0.02734 -0.01172,-0.01172 -0.01172,-0.01172 -0.01953,-0.02344 -0.01563,-0.02344 -0.01563,-0.02344 -0.03906,-0.03125 0,0.0078 0,0.0078 -0.0039,0.01563 -0.01563,0.03125 -0.03906,0.05469 -0.0625,0.08203 -0.01172,0.01172 -0.01953,0.02344 -0.03125,0.03516 -0.0039,0.0078 -0.0078,0.01172 -0.01563,0.01953 -0.02344,0.02344 -0.04297,0.05078 -0.06641,0.07813 -0.0039,0.0039 -0.0078,0.0078 -0.01172,0.01562 -0.03516,0.03906 -0.06641,0.07813 -0.101563,0.117188 -0.02734,0.03516 -0.05469,0.07031 -0.08203,0.101562 -0.02734,0.03516 -0.05469,0.06641 -0.08203,0.09766 -0.03516,0.04297 -0.07031,0.08594 -0.105469,0.125 -0.03125,0.04297 -0.06641,0.08203 -0.09766,0.121093 -0.02344,0.03125 -0.04687,0.05859 -0.07031,0.08594 -0.03516,0.04297 -0.07031,0.08203 -0.105468,0.125 -0.03906,0.05078 -0.07813,0.101562 -0.121094,0.148438 -0.04297,0.05078 -0.08203,0.101562 -0.121094,0.148437 -0.05469,0.07031 -0.113281,0.136719 -0.167969,0.203125 -0.04297,0.05469 -0.08594,0.105469 -0.128906,0.160156 -0.0078,0.0078 -0.01172,0.01563 -0.01953,0.02344 -0.04687,0.05859 -0.09375,0.113281 -0.140625,0.171875 -0.02734,0.03516 -0.05859,0.07031 -0.08594,0.105469 -0.109375,0.132812 -0.109375,0.132812 -0.214843,0.265624 -0.03516,0.04688 -0.07422,0.09375 -0.113282,0.140626 -0.03125,0.03906 -0.06641,0.08203 -0.09766,0.125 -0.03516,0.03906 -0.06641,0.08203 -0.101562,0.125 -0.03516,0.04297 -0.07422,0.08984 -0.109376,0.136718 -0.04297,0.05469 -0.08594,0.105469 -0.128906,0.160156 -0.03516,0.04297 -0.07031,0.08984 -0.105468,0.136719 -0.03125,0.03906 -0.06641,0.07813 -0.09766,0.121094 -0.04297,0.05078 -0.08203,0.101563 -0.121093,0.152344 -0.04688,0.0625 -0.09375,0.121093 -0.144532,0.179687 -0.03906,0.05078 -0.07813,0.09766 -0.117187,0.148438 -0.02344,0.03125 -0.04687,0.0625 -0.07031,0.09375 -0.0039,0.0078 -0.0078,0.01172 -0.01172,0.01563 -0.01172,0.01172 -0.01953,0.02344 -0.02734,0.03516 -0.02344,0.02734 -0.04297,0.05469 -0.0625,0.08203 -0.01172,0.0078 -0.01953,0.01953 -0.02734,0.03125 -0.0039,0.0039 -0.0078,0.01172 -0.01172,0.01563 -0.03906,0.05078 -0.03906,0.05078 -0.05078,0.06641 -0.0078,0.0078 -0.01953,0.01953 -0.02734,0.03125 -0.01953,0.02734 -0.03906,0.05469 -0.0625,0.07812 -0.0625,0.08203 -0.125,0.164063 -0.1875,0.246094 -0.01953,0.01953 -0.03516,0.04297 -0.05078,0.06641 -0.05469,0.07031 -0.109375,0.140626 -0.164063,0.210938 -0.03125,0.03906 -0.05859,0.07813 -0.08984,0.113281 -0.05078,0.07031 -0.105469,0.136719 -0.15625,0.207031 -0.01563,0.01953 -0.03125,0.03906 -0.04687,0.05469 -0.03906,0.05469 -0.08203,0.109375 -0.121094,0.164062 -0.03125,0.03906 -0.05859,0.07813 -0.08984,0.117188 -0.05859,0.07422 -0.117187,0.152344 -0.175781,0.230469 -0.01953,0.02344 -0.03906,0.05078 -0.05859,0.07422 -0.06641,0.08594 -0.128906,0.175781 -0.195312,0.261718 -0.04297,0.05469 -0.08594,0.113282 -0.128907,0.167969 -0.05078,0.07031 -0.101562,0.136719 -0.152343,0.207031 -0.04687,0.0625 -0.09375,0.125 -0.140625,0.1875 -0.04687,0.0625 -0.09375,0.121094 -0.136719,0.183594 -0.04297,0.05469 -0.08203,0.109375 -0.125,0.167969 -0.04297,0.05469 -0.08984,0.113281 -0.128906,0.175781 -0.05078,0.06641 -0.09766,0.132812 -0.148438,0.199219 -0.02734,0.03906 -0.05469,0.07422 -0.08203,0.113281 -0.01172,0.01172 -0.01953,0.02734 -0.03125,0.04297 -0.0039,0.0078 -0.01172,0.01563 -0.01563,0.02344 -0.05078,0.06641 -0.05078,0.06641 -0.06641,0.08594 -0.01172,0.01563 -0.01953,0.03125 -0.03125,0.04297 -0.02734,0.03906 -0.05469,0.07422 -0.08203,0.113282 -0.07422,0.09766 -0.144532,0.199218 -0.214844,0.296875 -0.0625,0.08594 -0.125,0.171875 -0.1875,0.257812 -0.04297,0.05469 -0.08203,0.109375 -0.121094,0.167969 -0.03125,0.04297 -0.0625,0.08594 -0.09375,0.128906 -0.04297,0.0625 -0.08594,0.125 -0.128906,0.183594 -0.03906,0.05469 -0.07813,0.109375 -0.117188,0.164062 -0.03906,0.05469 -0.07813,0.109376 -0.117187,0.160157 -0.03125,0.04687 -0.06641,0.09766 -0.09766,0.140625 -0.05469,0.07813 -0.109374,0.152344 -0.160156,0.226562 -0.02734,0.04297 -0.05859,0.08203 -0.08594,0.125 -0.05859,0.07813 -0.113281,0.160156 -0.167969,0.242188 -0.02734,0.03906 -0.05469,0.07422 -0.08203,0.113281 -0.0078,0.0078 -0.01172,0.01563 -0.01563,0.02344 -0.02734,0.03906 -0.05469,0.07813 -0.08203,0.117188 -0.113281,0.160156 -0.222656,0.320312 -0.335937,0.484375 -0.01953,0.03125 -0.04297,0.05859 -0.0625,0.08984 -0.0078,0.01172 -0.01563,0.02734 -0.02344,0.03906 -0.01953,0.02344 -0.03516,0.04687 -0.05078,0.07031 -0.05469,0.08203 -0.113281,0.164062 -0.167968,0.246094 -0.01953,0.02734 -0.03906,0.05859 -0.05859,0.08594 -0.15625,0.230469 -0.3125,0.460937 -0.46875,0.691406 -0.03125,0.05078 -0.06641,0.09766 -0.09766,0.148438 -0.132813,0.195312 -0.261719,0.390625 -0.390626,0.585937 -0.05078,0.08203 -0.105468,0.164063 -0.160156,0.246094 -0.132812,0.203125 -0.265625,0.402344 -0.398437,0.609375 -0.01953,0.02734 -0.03906,0.05859 -0.05469,0.08594 -0.0625,0.09766 -0.125,0.191407 -0.1875,0.289063 -0.03516,0.05469 -0.07031,0.109375 -0.105469,0.164063 -0.105468,0.160156 -0.207031,0.324218 -0.3125,0.488281 -0.01562,0.02734 -0.03125,0.05078 -0.04687,0.07813 -0.109376,0.171875 -0.21875,0.347656 -0.328126,0.523437 -0.02344,0.03516 -0.04687,0.07422 -0.07031,0.109375 -0.01172,0.01953 -0.02344,0.03906 -0.03516,0.05859 -0.02734,0.04297 -0.05859,0.08984 -0.08594,0.136719 -0.07422,0.117187 -0.144531,0.234375 -0.214844,0.351562 -0.03516,0.05078 -0.06641,0.105469 -0.09766,0.15625 -0.05859,0.09375 -0.117187,0.1875 -0.171875,0.28125 -0.02344,0.03516 -0.04297,0.07031 -0.06641,0.105469 -0.05859,0.09766 -0.117187,0.199219 -0.175781,0.296875 -0.03516,0.05469 -0.06641,0.109375 -0.101563,0.164063 -0.07813,0.128906 -0.15625,0.257812 -0.230469,0.386718 -0.0078,0.01172 -0.01562,0.02344 -0.02344,0.03516 -0.0039,0.0078 -0.0039,0.0078 -0.0078,0.01563 -0.02734,0.04687 -0.05469,0.09375 -0.08594,0.140624 -0.03125,0.05859 -0.06641,0.117188 -0.101563,0.171876 -0.0039,0.01172 -0.01172,0.02344 -0.01953,0.03516 -0.01172,0.01953 -0.02344,0.04297 -0.03906,0.06641 -0.01563,0.02734 -0.03125,0.05469 -0.04687,0.08203 -0.121094,0.203125 -0.242188,0.410157 -0.359375,0.617188 -0.01563,0.02734 -0.03125,0.05469 -0.05078,0.08203 -0.117188,0.203125 -0.238282,0.410156 -0.355469,0.617188 -0.01953,0.03906 -0.04297,0.07812 -0.0625,0.117187 -0.06641,0.113281 -0.132813,0.226563 -0.195313,0.339844 -0.03516,0.0625 -0.06641,0.121093 -0.101562,0.183593 -0.105469,0.179688 -0.203125,0.363282 -0.304688,0.546876 -0.01953,0.03125 -0.03516,0.0625 -0.05469,0.09375 -0.109375,0.199218 -0.21875,0.398437 -0.328125,0.597656 -0.03516,0.0625 -0.06641,0.125 -0.105469,0.1875 -0.04297,0.08203 -0.08594,0.160156 -0.128906,0.242187 -0.02734,0.05859 -0.05859,0.117188 -0.09375,0.175781 -0.05078,0.09766 -0.101563,0.191407 -0.152344,0.289063 -0.04687,0.08594 -0.08984,0.167969 -0.132813,0.25 -0.04687,0.08594 -0.09375,0.175781 -0.136718,0.261719 -0.02734,0.04687 -0.05078,0.09766 -0.07813,0.144531 -0.07031,0.125 -0.136719,0.257813 -0.203125,0.386719 -0.04297,0.08594 -0.08984,0.175781 -0.132813,0.261718 -0.03906,0.07031 -0.07422,0.140626 -0.113281,0.214844 -0.0078,0.01172 -0.01172,0.02734 -0.01953,0.03906 -0.01172,0.02344 -0.02344,0.04687 -0.03516,0.06641 -0.01953,0.04297 -0.04297,0.08594 -0.06641,0.128906 -0.105468,0.203125 -0.207031,0.410157 -0.308594,0.613281 -0.04687,0.09375 -0.09375,0.191407 -0.144531,0.285157 -0.03125,0.05859 -0.05859,0.117187 -0.08594,0.175781 -0.08203,0.167969 -0.164063,0.332031 -0.246094,0.496094 -0.05469,0.113281 -0.109375,0.226562 -0.164062,0.335937 -0.03516,0.07813 -0.07422,0.152344 -0.109376,0.226563 -0.101562,0.207031 -0.199218,0.410156 -0.292968,0.613281 -0.04297,0.08984 -0.08594,0.179687 -0.128906,0.269531 -0.04297,0.09375 -0.08594,0.1875 -0.132813,0.28125 -0.02734,0.05859 -0.05469,0.117188 -0.08203,0.175782 0,0.0078 -0.0039,0.01172 -0.0078,0.01953 -0.0078,0.01563 -0.01172,0.02734 -0.01953,0.03906 -0.05469,0.117188 -0.105469,0.234375 -0.160156,0.347657 -0.04687,0.101562 -0.08984,0.203124 -0.136719,0.304687 -0.06641,0.140625 -0.132813,0.285156 -0.195313,0.425781 -0.03906,0.08984 -0.07812,0.175782 -0.117187,0.261719 -0.0625,0.140625 -0.125,0.277344 -0.1875,0.417969 -0.04687,0.113281 -0.09766,0.226562 -0.148437,0.335937 -0.07422,0.171875 -0.148438,0.339844 -0.21875,0.507813 -0.0078,0.01563 -0.0078,0.01563 -0.01172,0.02734 -0.05859,0.132812 -0.113281,0.265624 -0.171875,0.398437 -0.02734,0.06641 -0.05469,0.132813 -0.08594,0.199219 -0.08984,0.210937 -0.175781,0.421875 -0.265625,0.632812 -0.01953,0.04297 -0.03516,0.08984 -0.05469,0.132813 -0.08203,0.195312 -0.160156,0.390625 -0.242188,0.582031 -0.0039,0.01563 -0.0039,0.01563 -0.0078,0.02734 -0.04687,0.113281 -0.09375,0.230468 -0.140625,0.347656 -0.0078,0 -0.01172,0 -0.01953,0 -0.0039,-0.0039 -0.0078,-0.01172 -0.0078,-0.01953 -0.07422,-0.125 -0.144531,-0.253907 -0.21875,-0.378907 -0.03125,-0.05859 -0.06641,-0.117187 -0.101563,-0.175781 -0.0039,-0.0078 -0.01172,-0.01953 -0.01562,-0.03125 -0.01172,-0.01953 -0.02344,-0.03906 -0.03516,-0.05859 -0.03125,-0.05078 -0.05859,-0.101563 -0.08594,-0.152344 -0.01172,-0.01953 -0.02344,-0.03906 -0.03516,-0.05859 -0.0078,-0.01172 -0.01172,-0.01953 -0.01953,-0.03125 -0.570312,-0.996094 -1.144531,-1.988281 -5.460937,-9.496094 -0.0039,-0.01172 -0.0078,-0.01953 -0.01563,-0.03125 -0.01172,-0.01953 -0.02344,-0.03906 -0.03516,-0.05859 -0.02734,-0.05078 -0.05859,-0.101562 -0.08594,-0.152343 -0.0625,-0.109375 -0.125,-0.21875 -0.1875,-0.328125 -0.04687,-0.08203 -0.09766,-0.167969 -0.144531,-0.25 -0.04687,-0.07813 -0.08984,-0.152344 -0.132813,-0.230469 -0.04687,-0.08594 -0.09766,-0.167969 -0.144531,-0.25 -0.04297,-0.07422 -0.08203,-0.144531 -0.125,-0.21875 -0.0625,-0.109375 -0.128906,-0.21875 -0.191406,-0.332031 0.03516,-0.05078 0.07422,-0.09375 0.117187,-0.136719 0.0078,-0.0078 0.0078,-0.0078 0.01563,-0.01563 0.01953,-0.01953 0.03516,-0.03906 0.05469,-0.05469 0.01953,-0.01953 0.03516,-0.03516 0.05469,-0.05469 0.01172,-0.01172 0.02344,-0.02344 0.03516,-0.03125 0.02344,-0.02734 0.05078,-0.05469 0.07422,-0.08203 0.04297,-0.05078 0.08984,-0.09375 0.132813,-0.140625 0.01953,-0.01563 0.03516,-0.03516 0.05078,-0.05078 0.04297,-0.03906 0.08203,-0.08203 0.125,-0.121094 0.03516,-0.03516 0.07031,-0.07031 0.105469,-0.105469 0.01563,-0.01563 0.03125,-0.03125 0.04687,-0.05078 0.04687,-0.04297 0.08984,-0.08984 0.132812,-0.140625 0.02734,-0.03125 0.05859,-0.0625 0.08984,-0.09375 0.0078,-0.0039 0.01172,-0.01172 0.01953,-0.01953 0.01563,-0.01563 0.03125,-0.02734 0.04297,-0.04297 0.02344,-0.02344 0.04687,-0.04687 0.06641,-0.06641 0.01563,-0.01562 0.03125,-0.03125 0.04297,-0.04297 0.0078,-0.0078 0.01563,-0.01563 0.01953,-0.01953 0.03125,-0.03125 0.05859,-0.05859 0.08984,-0.08594 0.05078,-0.04297 0.09766,-0.08984 0.144531,-0.136719 0.01563,-0.01563 0.03125,-0.03125 0.04687,-0.05078 0.03906,-0.03516 0.07422,-0.07031 0.109375,-0.105469 0.03906,-0.04297 0.08203,-0.08594 0.125,-0.125 0.01563,-0.01953 0.03125,-0.03516 0.04687,-0.05078 0.04687,-0.04687 0.09375,-0.09375 0.144531,-0.136719 0.02734,-0.02344 0.05078,-0.04687 0.07422,-0.07031 0.0039,-0.0039 0.0078,-0.01172 0.01563,-0.01563 0.01563,-0.01563 0.03125,-0.03125 0.04687,-0.04687 0.117188,-0.121094 0.117188,-0.121094 0.175781,-0.171875 0.03516,-0.03125 0.06641,-0.06641 0.101563,-0.09766 0.04297,-0.04687 0.08984,-0.08984 0.136719,-0.132812 0.03125,-0.02734 0.0625,-0.05859 0.08984,-0.08594 0.03906,-0.04297 0.07812,-0.08203 0.125,-0.117187 0.03125,-0.02734 0.05859,-0.05859 0.08594,-0.08984 0.03125,-0.03125 0.06641,-0.05859 0.09766,-0.08594 0.03125,-0.02734 0.05859,-0.05859 0.08984,-0.08984 0.02344,-0.02344 0.05078,-0.04687 0.07813,-0.07031 0.02734,-0.02344 0.05469,-0.05078 0.07813,-0.07813 0.02734,-0.02344 0.05078,-0.04687 0.07813,-0.07031 0.02344,-0.01953 0.04687,-0.04297 0.06641,-0.0625 0.02344,-0.02344 0.04687,-0.04687 0.07422,-0.06641 0.01953,-0.01953 0.04297,-0.04297 0.0625,-0.0625 0.01953,-0.01953 0.03516,-0.03516 0.05469,-0.05078 0.03906,-0.03125 0.07422,-0.06641 0.113282,-0.105468 0.0625,-0.05859 0.125,-0.117188 0.1875,-0.175782 0.01953,-0.01562 0.03906,-0.03516 0.05859,-0.05469 0.05859,-0.05078 0.117187,-0.105469 0.171874,-0.15625 0.01953,-0.01953 0.03906,-0.03516 0.05469,-0.05078 0.01172,-0.01172 0.01953,-0.01953 0.03125,-0.02734 0.02344,-0.01953 0.04687,-0.04297 0.07031,-0.0625 0.04688,-0.04687 0.09766,-0.09375 0.148438,-0.140625 0.02734,-0.02344 0.05469,-0.04687 0.08203,-0.07422 0.02734,-0.02734 0.05859,-0.05469 0.08984,-0.07813 0.03516,-0.03125 0.06641,-0.05859 0.09766,-0.08984 0.03906,-0.03516 0.07422,-0.07031 0.113281,-0.105469 0.02734,-0.01953 0.05078,-0.04297 0.07813,-0.06641 0.03516,-0.03516 0.07031,-0.06641 0.109374,-0.101562 0.02344,-0.01563 0.04297,-0.03516 0.06641,-0.05469 0.03125,-0.03125 0.06641,-0.0625 0.09766,-0.08984 0.02344,-0.01953 0.04687,-0.03906 0.06641,-0.05859 0.03516,-0.03125 0.06641,-0.0625 0.101563,-0.08984 0.01953,-0.01953 0.04297,-0.03906 0.0625,-0.05859 0.03125,-0.02734 0.0625,-0.05469 0.09766,-0.08203 0.04687,-0.03906 0.08984,-0.07813 0.132812,-0.121094 0.04297,-0.03906 0.08203,-0.07031 0.125,-0.105468 0.03125,-0.02734 0.05859,-0.05078 0.08594,-0.07813 0.04297,-0.03906 0.08984,-0.07813 0.136719,-0.117188 0.02734,-0.02344 0.05859,-0.05078 0.08594,-0.07813 0.04297,-0.03906 0.08984,-0.07813 0.136719,-0.117187 0.02734,-0.02344 0.05078,-0.04297 0.07422,-0.06641 0.04297,-0.03906 0.08594,-0.07422 0.128906,-0.109374 0.02734,-0.02344 0.05078,-0.04688 0.07422,-0.06641 0.04297,-0.03906 0.08594,-0.07422 0.128906,-0.109375 0.02344,-0.02344 0.04687,-0.04297 0.07031,-0.0625 0.03125,-0.03125 0.0625,-0.05469 0.09375,-0.08203 0.04297,-0.03516 0.08203,-0.06641 0.121093,-0.101563 0.0078,-0.0078 0.01172,-0.01172 0.01953,-0.01562 0.01172,-0.01172 0.02344,-0.02344 0.03516,-0.03125 0.06641,-0.05859 0.132812,-0.113282 0.199219,-0.167969 0.03906,-0.03516 0.07812,-0.07031 0.121093,-0.105469 0.04687,-0.03906 0.09375,-0.08203 0.144531,-0.121094 0.03125,-0.02344 0.05859,-0.05078 0.08984,-0.07813 0.04687,-0.03906 0.09375,-0.07813 0.140625,-0.117187 0.02734,-0.02344 0.05859,-0.04687 0.08594,-0.07031 0.04297,-0.03906 0.08984,-0.07813 0.136719,-0.113281 0.02734,-0.02344 0.05469,-0.05078 0.08594,-0.07422 0.04297,-0.03516 0.08594,-0.07422 0.132813,-0.109375 0.03516,-0.03125 0.07031,-0.05859 0.101562,-0.08594 0.0078,-0.0078 0.01563,-0.01172 0.02344,-0.01563 0.01172,-0.01172 0.02734,-0.02344 0.03906,-0.03516 0.03906,-0.03125 0.07813,-0.06641 0.117188,-0.09766 0.03516,-0.02734 0.07031,-0.05469 0.101562,-0.08203 0.117188,-0.09766 0.230469,-0.191406 0.347656,-0.285156 0.03125,-0.02734 0.0625,-0.05078 0.09375,-0.07813 0.01172,-0.0078 0.02344,-0.01953 0.03516,-0.02734 0.0078,-0.0078 0.01172,-0.01172 0.01953,-0.01563 0.01953,-0.01563 0.03516,-0.03125 0.05469,-0.04687 0.0078,-0.0039 0.01172,-0.0078 0.01953,-0.01563 0.01172,-0.0078 0.02344,-0.01953 0.03516,-0.02734 0.03125,-0.02734 0.0625,-0.05078 0.09375,-0.07813 0.0625,-0.05078 0.125,-0.101562 0.191406,-0.152343 0.04297,-0.03125 0.08203,-0.06641 0.121094,-0.09766 0.05078,-0.04297 0.105469,-0.08594 0.15625,-0.125 0.04297,-0.03125 0.08203,-0.06641 0.121093,-0.09766 0.07422,-0.0625 0.148438,-0.117187 0.222657,-0.175781 0.0625,-0.05078 0.125,-0.101563 0.1875,-0.152344 0.05078,-0.04297 0.105469,-0.08594 0.164062,-0.128906 0.03125,-0.02344 0.05859,-0.04687 0.08984,-0.07031 0.05078,-0.03906 0.101563,-0.07813 0.152344,-0.117187 0.04687,-0.03906 0.09766,-0.07813 0.148437,-0.117188 0.06641,-0.05469 0.136719,-0.109375 0.207032,-0.164062 0.02344,-0.01563 0.04297,-0.03516 0.06641,-0.05078 0.07031,-0.05469 0.140625,-0.109374 0.210937,-0.164062 0.02344,-0.01953 0.04687,-0.03516 0.07031,-0.05469 0.08203,-0.0625 0.164062,-0.125 0.246094,-0.1875 0.05078,-0.03906 0.09766,-0.07422 0.144531,-0.113281 0.07422,-0.05859 0.148437,-0.113281 0.21875,-0.167969 0.02734,-0.01953 0.05078,-0.03906 0.07422,-0.05859 0.08984,-0.06641 0.175781,-0.132813 0.261718,-0.199219 0.05469,-0.03906 0.113282,-0.08203 0.167969,-0.125 0.06641,-0.05078 0.136719,-0.105469 0.207031,-0.15625 0.05469,-0.03906 0.109375,-0.08203 0.160156,-0.121094 0.07031,-0.05469 0.140626,-0.105468 0.207032,-0.15625 0.05469,-0.03906 0.105468,-0.07813 0.160156,-0.117187 0.08203,-0.0625 0.164062,-0.125 0.246094,-0.183594 0.03516,-0.02734 0.07422,-0.05469 0.109375,-0.08203 0.01563,-0.01172 0.02734,-0.01953 0.04297,-0.03125 0.01172,-0.0078 0.01172,-0.0078 0.02344,-0.01563 0.01953,-0.01953 0.04297,-0.03516 0.06641,-0.05078 0.0078,-0.0039 0.01172,-0.01172 0.01953,-0.01563 0.01563,-0.01172 0.03125,-0.02344 0.04688,-0.03125 0.03516,-0.02734 0.07031,-0.05469 0.109374,-0.08203 0.07813,-0.05859 0.15625,-0.117187 0.234376,-0.171875 0.05078,-0.03906 0.101562,-0.07422 0.148437,-0.109375 0.07813,-0.05859 0.15625,-0.117187 0.234375,-0.171875 0.03516,-0.02734 0.07031,-0.05078 0.105469,-0.07422 0.01172,-0.01172 0.02734,-0.02344 0.03906,-0.03125 0.0078,-0.0039 0.01563,-0.01172 0.02344,-0.01563 0.01953,-0.01562 0.03906,-0.03125 0.0625,-0.04687 0.0078,-0.0039 0.01172,-0.0078 0.01953,-0.01172 0.01563,-0.01172 0.02734,-0.02344 0.04297,-0.03125 0.03516,-0.02734 0.07031,-0.05078 0.105469,-0.07813 0.06641,-0.04687 0.132812,-0.09766 0.203124,-0.144532 0.04297,-0.03125 0.08594,-0.06641 0.132813,-0.09766 0.05469,-0.03906 0.109375,-0.07813 0.164063,-0.117187 0.04297,-0.03125 0.08594,-0.0625 0.128906,-0.09375 0.08594,-0.0625 0.175781,-0.125 0.261718,-0.1875 0.07422,-0.05078 0.148438,-0.101563 0.21875,-0.15625 0.08203,-0.05859 0.164063,-0.117188 0.246094,-0.175781 0.03906,-0.02734 0.07813,-0.05469 0.117188,-0.08203 0.0078,-0.0039 0.01563,-0.01172 0.02344,-0.01563 0.05078,-0.03516 0.09766,-0.07031 0.148438,-0.101562 0.07813,-0.05859 0.160156,-0.113281 0.238281,-0.171875 0.02344,-0.01563 0.04687,-0.03125 0.07031,-0.04687 0.144532,-0.105469 0.292969,-0.207031 0.441407,-0.308594 0.05469,-0.03906 0.109375,-0.07422 0.164062,-0.113281 0.08594,-0.0625 0.171875,-0.121094 0.261719,-0.183594 0.03125,-0.01953 0.0625,-0.04297 0.09375,-0.0625 0.07422,-0.05469 0.152344,-0.105469 0.226562,-0.15625 0.02344,-0.01563 0.04297,-0.03125 0.06641,-0.04297 0.402343,-0.28125 0.808593,-0.554687 1.21875,-0.828125 0.07813,-0.05469 0.15625,-0.105468 0.234375,-0.160156 0.01563,-0.0078 0.01563,-0.0078 0.02734,-0.01953 0.04297,-0.02734 0.08594,-0.05859 0.128906,-0.08594 0.07813,-0.05469 0.160156,-0.105469 0.238281,-0.15625 0.08594,-0.05469 0.167969,-0.113281 0.253906,-0.167969 0.0078,-0.0078 0.01953,-0.01172 0.02734,-0.01953 0.08984,-0.05859 0.183594,-0.121093 0.273437,-0.179687 0.0078,-0.0078 0.01563,-0.01172 0.02344,-0.01563 0.03125,-0.01953 0.0625,-0.04297 0.09375,-0.0625 0.0625,-0.04297 0.128906,-0.08594 0.195312,-0.128907 0.03906,-0.02344 0.08203,-0.05078 0.121094,-0.07812 0.0039,-0.0039 0.01172,-0.0078 0.01563,-0.01172 0.0078,-0.0039 0.01172,-0.0078 0.01563,-0.0078 0.06641,-0.04687 0.132813,-0.08984 0.199219,-0.132812 0.03125,-0.01953 0.0625,-0.03906 0.09375,-0.0625 0.08594,-0.05469 0.167969,-0.109375 0.253906,-0.164063 0.02734,-0.01563 0.05078,-0.03125 0.07813,-0.05078 0.01172,-0.0078 0.02734,-0.01563 0.03906,-0.02344 0.03125,-0.01953 0.0625,-0.04297 0.09375,-0.0625 0.109375,-0.07031 0.214843,-0.136718 0.324219,-0.207031 0.04687,-0.03125 0.09766,-0.0625 0.144531,-0.09375 0.01953,-0.01172 0.03906,-0.02344 0.05859,-0.03516 0.03906,-0.02734 0.07813,-0.05078 0.117188,-0.07813 0.117188,-0.07422 0.230469,-0.148438 0.347656,-0.222656 0.02734,-0.01563 0.05469,-0.03125 0.07813,-0.05078 0.101563,-0.0625 0.203125,-0.128906 0.304688,-0.191406 0.03125,-0.01953 0.05859,-0.03906 0.08984,-0.05859 0.01172,-0.0078 0.02734,-0.01562 0.04297,-0.02734 0.03516,-0.02344 0.07031,-0.04297 0.109375,-0.06641 0.08984,-0.05859 0.179688,-0.117187 0.273438,-0.171874 0.05469,-0.03516 0.113281,-0.07422 0.167968,-0.109376 0.152344,-0.09766 0.304688,-0.191406 0.460938,-0.285156 0.06641,-0.04297 0.132812,-0.08594 0.199219,-0.125 0.09766,-0.0625 0.195312,-0.125 0.292969,-0.183594 0.05469,-0.03125 0.105468,-0.0625 0.15625,-0.09766 0.15625,-0.09766 0.3125,-0.191406 0.46875,-0.289062 0.06641,-0.03906 0.132812,-0.07813 0.199218,-0.121094 0.109375,-0.06641 0.222656,-0.136719 0.332032,-0.203125 0.03906,-0.02344 0.07422,-0.04687 0.113281,-0.07031 0.113281,-0.06641 0.222656,-0.132812 0.332031,-0.199218 0.08984,-0.05469 0.179688,-0.109375 0.265625,-0.160156 0.01172,-0.0078 0.02344,-0.01563 0.03516,-0.02344 0.01563,-0.0078 0.03125,-0.01953 0.04687,-0.02734 0.0078,-0.0039 0.01563,-0.01172 0.02734,-0.01563 0.02734,-0.01563 0.02734,-0.01563 0.05078,-0.03906 0.02734,-0.01563 0.02734,-0.01563 0.05078,-0.0078 z m 0,0"
         id="path2" /><path
         style="fill:#e64c2b;fill-opacity:1;fill-rule:nonzero;stroke:none"
         d="M 56.847656,0 C 71.085938,0 85.328125,0 100,0 c -0.01172,0.0351562 -0.02734,0.0625 -0.04297,0.09375 -0.0078,0.007812 -0.01172,0.019531 -0.01563,0.027344 -0.0078,0.011718 -0.01172,0.019531 -0.01953,0.03125 -0.0078,0.015625 -0.0078,0.015625 -0.01563,0.03125 -0.05078,0.085937 -0.101562,0.171875 -0.152344,0.261718 -0.03125,0.058594 -0.06641,0.117188 -0.101562,0.175782 -0.0078,0.015625 -0.0078,0.015625 -0.01563,0.03125 -0.01172,0.019531 -0.02344,0.039062 -0.03516,0.058594 -0.02734,0.050781 -0.05859,0.101562 -0.08594,0.152343 -0.01172,0.019531 -0.02344,0.039063 -0.03516,0.058594 -0.207031,0.363281 -0.207031,0.363281 -0.226563,0.394531 -0.01172,0.019532 -0.02344,0.039063 -0.03516,0.058594 -0.02734,0.050781 -0.05469,0.101562 -0.08594,0.148438 -0.0625,0.109374 -0.125,0.222656 -0.1875,0.332031 -0.04687,0.082031 -0.09766,0.167969 -0.144531,0.25 -0.04297,0.070312 -0.08203,0.140625 -0.121093,0.214843 -0.04688,0.078126 -0.09375,0.160157 -0.140626,0.238282 -0.04687,0.082031 -0.09375,0.160156 -0.136718,0.242187 C 98.335903,2.914062 98.2695,3.027344 98.207,3.140625 98.17575,3.191406 98.14841,3.242188 98.11716,3.292969 98.10544,3.3125 98.09372,3.332031 98.08591,3.351562 c -0.0078,0.011719 -0.01172,0.019532 -0.01953,0.03125 -0.746094,1.296876 -0.746094,1.296876 -0.761718,1.328126 -0.01172,0.019531 -0.02344,0.039062 -0.03516,0.058593 -0.02734,0.050781 -0.05859,0.101563 -0.08594,0.152344 -0.0625,0.109375 -0.125,0.21875 -0.1875,0.328125 -0.05078,0.082031 -0.09766,0.167969 -0.144532,0.25 -0.04297,0.070312 -0.08203,0.140625 -0.125,0.214844 -0.04687,0.078125 -0.08984,0.160156 -0.136718,0.238281 -0.04687,0.082031 -0.09375,0.160156 -0.140625,0.242187 -0.0625,0.113282 -0.128907,0.226563 -0.195313,0.34375 -0.02734,0.046876 -0.05859,0.097657 -0.08594,0.148438 -0.01172,0.019531 -0.02344,0.039062 -0.03516,0.058594 -0.0039,0.011718 -0.01172,0.023437 -0.01562,0.03125 -0.609376,1.054687 -0.609376,1.054687 -0.625,1.085937 -0.01172,0.019531 -0.02344,0.039063 -0.03516,0.058594 -0.02734,0.050781 -0.05859,0.101563 -0.08594,0.152344 -0.0625,0.109375 -0.125,0.21875 -0.1875,0.328125 -0.04687,0.085937 -0.09766,0.167968 -0.144532,0.25 -0.04297,0.070312 -0.08203,0.144531 -0.125,0.214844 -0.04297,0.082031 -0.08984,0.160156 -0.136718,0.242187 -0.04687,0.078125 -0.09375,0.160156 -0.140625,0.238281 -0.0625,0.113282 -0.128907,0.230469 -0.195313,0.34375 -0.02734,0.050782 -0.05469,0.101563 -0.08594,0.148438 -0.01172,0.023437 -0.02344,0.042968 -0.03516,0.0625 -0.0078,0.015625 -0.0078,0.015625 -0.01562,0.03125 -0.746094,1.292968 -0.746094,1.292968 -0.761719,1.324218 -0.01172,0.01953 -0.02344,0.03906 -0.03516,0.0625 -0.03125,0.04688 -0.05859,0.09766 -0.08594,0.148438 -0.06641,0.109375 -0.128906,0.21875 -0.191406,0.328125 -0.04687,0.08594 -0.09375,0.167969 -0.144531,0.25 -0.03906,0.07422 -0.08203,0.144531 -0.121094,0.214844 -0.04687,0.08203 -0.09375,0.160156 -0.140625,0.242187 -0.04297,0.07813 -0.08984,0.160156 -0.136719,0.238282 -0.214844,0.382812 -0.214844,0.382812 -0.285156,0.492187 -0.08594,-0.03906 -0.167969,-0.08203 -0.25,-0.128906 -0.08203,-0.04687 -0.164063,-0.08984 -0.246094,-0.132813 -0.05859,-0.03125 -0.117188,-0.0625 -0.175781,-0.09375 -0.113281,-0.06641 -0.230469,-0.125 -0.34375,-0.1875 -0.04687,-0.02344 -0.08984,-0.04687 -0.136719,-0.07031 -0.128906,-0.07031 -0.261719,-0.140625 -0.398438,-0.210938 -0.04687,-0.02344 -0.09375,-0.05078 -0.140624,-0.07422 -0.171876,-0.08984 -0.34375,-0.179688 -0.515626,-0.269532 -0.03125,-0.01563 -0.0625,-0.03125 -0.09375,-0.05078 -0.398437,-0.207031 -0.800781,-0.410156 -1.203124,-0.613281 -0.05469,-0.02734 -0.109376,-0.05469 -0.164063,-0.08203 -0.05469,-0.02734 -0.109375,-0.05469 -0.164063,-0.08203 -0.03125,-0.01563 -0.0625,-0.03125 -0.09375,-0.04687 -0.140624,-0.07031 -0.285156,-0.140625 -0.425781,-0.207031 -0.04687,-0.02344 -0.08984,-0.04297 -0.136719,-0.06641 -0.0078,-0.0039 -0.01562,-0.0078 -0.02734,-0.01563 -0.03906,-0.01563 -0.07422,-0.03516 -0.113281,-0.05469 -0.179688,-0.08984 -0.363282,-0.175781 -0.546876,-0.261718 -0.109374,-0.05078 -0.214843,-0.105469 -0.324218,-0.15625 -0.101563,-0.05078 -0.199219,-0.09766 -0.300782,-0.144532 C 86.523438,10.25 86.441406,10.210938 86.359375,10.171875 86.238281,10.113281 86.117188,10.058594 85.996094,10.003906 85.902344,9.960938 85.808594,9.917969 85.71875,9.875 85.585938,9.8125 85.453125,9.75 85.324219,9.691406 85.277344,9.671875 85.230469,9.648438 85.183594,9.628906 85.035156,9.558594 84.886719,9.492188 84.734375,9.425781 84.636719,9.382812 84.542969,9.339844 84.445312,9.292969 84.296875,9.226562 84.148438,9.160156 84,9.097656 83.953125,9.074219 83.902344,9.054688 83.855469,9.035156 83.425781,8.84375 82.988281,8.65625 82.554688,8.46875 82.546875,8.464844 82.539062,8.460938 82.527344,8.457031 82.289062,8.355469 82.050781,8.253906 81.8125,8.15625 81.789062,8.144531 81.761719,8.132812 81.734375,8.121094 81.460938,8.007812 81.191406,7.894531 80.917969,7.78125 80.90625,7.777344 80.90625,7.777344 80.890625,7.769531 80.171875,7.472656 79.445312,7.183594 78.71875,6.902344 78.710938,6.898438 78.699219,6.894531 78.691406,6.890625 78.402344,6.777344 78.109375,6.664062 77.820312,6.554688 77.769531,6.535156 77.722656,6.515625 77.671875,6.496094 77.207031,6.320312 76.742188,6.144531 76.277344,5.972656 76.25,5.964844 76.222656,5.953125 76.195312,5.945312 75.886719,5.828125 75.574219,5.714844 75.261719,5.601562 75.25,5.597656 75.242188,5.59375 75.230469,5.589844 75.085938,5.539062 74.941406,5.488281 74.800781,5.433594 c -0.01172,0 -0.02344,-0.00391 -0.03125,-0.00781 C 74.441406,5.304688 74.113281,5.191406 73.785156,5.074219 73.753906,5.066406 73.726562,5.054688 73.699219,5.046875 73.59375,5.007812 73.488281,4.972656 73.382812,4.933594 73.363281,4.929688 73.347656,4.921875 73.332031,4.917969 73.199219,4.871094 73.066406,4.824219 72.933594,4.777344 72.914062,4.769531 72.894531,4.765625 72.871094,4.757812 72.265625,4.546875 71.65625,4.339844 71.046875,4.136719 71.019531,4.128906 70.992188,4.117188 70.964844,4.109375 70.726562,4.03125 70.488281,3.949219 70.25,3.875 70.207031,3.859375 70.164062,3.84375 70.121094,3.832031 69.714844,3.699219 69.308594,3.566406 68.902344,3.4375 68.882812,3.433594 68.859375,3.425781 68.839844,3.417969 68.4375,3.289062 68.03125,3.164062 67.628906,3.039062 67.566406,3.019531 67.503906,3 67.441406,2.980469 66.972656,2.832031 66.503906,2.691406 66.035156,2.550781 65.929688,2.519531 65.828125,2.488281 65.726562,2.457031 64.898438,2.207031 64.070312,1.964844 63.0625,1.679688 63.027344,1.671875 62.988281,1.660156 62.953125,1.648438 62.148438,1.421875 61.347656,1.203125 60.542969,0.984375 60.535156,0.980469 60.527344,0.980469 60.519531,0.976562 59.6875,0.75 58.855469,0.53125 57.75,0.246094 57.726562,0.242188 57.703125,0.234375 57.679688,0.230469 57.527344,0.191406 57.375,0.152344 57.222656,0.113281 57.191406,0.105469 57.160156,0.0976562 57.128906,0.0898438 57.085938,0.078125 57.042969,0.0664062 56.996094,0.0546875 56.980469,0.0507812 56.960938,0.046875 56.941406,0.0429688 c -0.0078,-0.0039063 -0.01953,-0.0039063 -0.02734,-0.0078126 -0.0078,0 -0.01562,-0.0039062 -0.02344,-0.0039062 -0.0078,-0.0039062 -0.01172,-0.0039062 -0.01953,-0.0078125 C 56.855469,0.0195312 56.855469,0.0195312 56.847656,0 Z m 0,0"
         id="path3" /><path
         style="fill:#e64c2b;fill-opacity:1;fill-rule:nonzero;stroke:none"
         d="m 0,0 c 14.242188,0 28.480469,0 43.152344,0 -0.0078,0.0195312 -0.0078,0.0195312 -0.02734,0.0273438 -0.01172,0 -0.01953,0.0039062 -0.03125,0.0039062 -0.01172,0.0039062 -0.02344,0.0078125 -0.03516,0.0117188 -0.01172,0 -0.02344,0.0039062 -0.03516,0.0078124 -0.01563,0.0039063 -0.02734,0.0078126 -0.03906,0.0078126 -0.02734,0.0078124 -0.05859,0.015625 -0.08594,0.0234374 -0.06641,0.015625 -0.136719,0.0312498 -0.207032,0.0507808 -0.02344,0.003907 -0.04687,0.011719 -0.07031,0.015626 -0.15625,0.039062 -0.3125,0.082031 -0.46875,0.121093 -0.0039,0 -0.01172,0.003907 -0.01953,0.003907 -0.105468,0.027343 -0.207031,0.054687 -0.3125,0.082031 -0.02734,0.007812 -0.05078,0.011719 -0.07812,0.019531 -0.921876,0.238281 -1.84375,0.484375 -4.035157,1.085938 -0.03125,0.011718 -0.05859,0.019531 -0.08984,0.027343 -0.871094,0.242188 -1.738282,0.492188 -5.164063,1.523438 -0.05078,0.015625 -0.09766,0.03125 -0.148437,0.046875 C 31.945312,3.167969 31.582031,3.285156 31.222656,3.398438 31.140625,3.425781 31.0625,3.449219 30.980469,3.476562 30.753906,3.546875 30.527344,3.617188 30.304688,3.691406 30.183594,3.730469 30.0625,3.769531 29.941406,3.808594 29.742188,3.875 29.539062,3.941406 29.339844,4.007812 c -0.140625,0.046876 -0.28125,0.09375 -0.425782,0.140626 -0.285156,0.09375 -0.574218,0.191406 -0.859374,0.289062 -0.09766,0.03125 -0.199219,0.066406 -0.296876,0.101562 -0.01172,0.00391 -0.02734,0.00781 -0.03906,0.011719 -0.0078,0.00391 -0.01172,0.00391 -0.01953,0.00781 -0.214844,0.070312 -0.429688,0.144531 -0.648438,0.222656 -0.09375,0.03125 -0.1875,0.066406 -0.28125,0.097656 -0.0078,0 -0.01172,0.00391 -0.01953,0.00781 -0.02344,0.00781 -0.04687,0.015625 -0.07031,0.023437 -0.234376,0.078125 -0.464844,0.160156 -0.695313,0.242188 -0.07031,0.027344 -0.144531,0.050781 -0.214844,0.078125 -0.265625,0.09375 -0.527343,0.1875 -0.792969,0.285156 -0.113281,0.039063 -0.222656,0.078125 -0.335937,0.121094 -0.0078,0 -0.01172,0.00391 -0.01953,0.00781 -0.02344,0.00781 -0.05078,0.015625 -0.07422,0.023438 C 24.273438,5.769531 24,5.867188 23.726562,5.96875 c -0.05469,0.019531 -0.109374,0.042969 -0.164062,0.0625 -0.644531,0.238281 -1.289062,0.480469 -1.929688,0.730469 -0.0078,0.00391 -0.01953,0.00781 -0.02734,0.011719 -0.132813,0.050781 -0.265625,0.101562 -0.398438,0.152343 -0.01953,0.00781 -0.03516,0.015625 -0.05469,0.023438 -0.328125,0.128906 -0.65625,0.257812 -0.984375,0.390625 -0.01172,0.00391 -0.01953,0.00781 -0.03125,0.011718 -0.21875,0.089844 -0.4375,0.175782 -0.660157,0.265626 -0.01172,0.00391 -0.01172,0.00391 -0.02344,0.011718 -0.136719,0.054688 -0.277344,0.113282 -0.417969,0.171875 -0.0078,0 -0.01563,0.00391 -0.02344,0.00781 -0.02344,0.00781 -0.04687,0.019531 -0.07031,0.027344 -0.0078,0.00391 -0.01563,0.00781 -0.02344,0.011718 -0.421875,0.175782 -0.839844,0.351563 -1.261719,0.527344 -0.0078,0.00391 -0.01953,0.00781 -0.02734,0.011719 -0.3125,0.132812 -0.625,0.269531 -0.933594,0.402343 -0.03516,0.015626 -0.06641,0.03125 -0.101562,0.046876 -0.460938,0.199218 -0.921875,0.40625 -1.382812,0.613281 -0.05469,0.023437 -0.109376,0.046875 -0.160157,0.074219 -0.1875,0.082031 -0.371093,0.164062 -0.554687,0.25 -0.05078,0.023437 -0.101563,0.046874 -0.152344,0.070312 -0.167969,0.078125 -0.332031,0.15625 -0.5,0.230469 -0.03125,0.01953 -0.06641,0.03516 -0.101562,0.05078 -0.152344,0.07031 -0.308594,0.144531 -0.460938,0.214844 -0.04687,0.02344 -0.09375,0.04687 -0.140625,0.06641 -0.164063,0.07813 -0.324219,0.15625 -0.488281,0.234375 -0.05469,0.02734 -0.105469,0.05078 -0.160156,0.07813 -0.289063,0.136719 -0.578126,0.277344 -0.863282,0.421875 -0.05859,0.02734 -0.113281,0.05469 -0.171875,0.08203 -0.105469,0.05078 -0.210937,0.105469 -0.3125,0.15625 -0.01953,0.0078 -0.03906,0.01953 -0.05859,0.02734 -0.03516,0.01953 -0.07422,0.03906 -0.113282,0.05859 -0.04687,0.02344 -0.09375,0.04687 -0.144531,0.07031 -0.03516,0.01953 -0.07422,0.03906 -0.113281,0.05859 -0.01563,0.0078 -0.03516,0.01563 -0.05078,0.02734 -0.105468,0.05078 -0.207031,0.101562 -0.308593,0.15625 -0.0625,0.03516 -0.128907,0.06641 -0.195313,0.09766 -0.07422,0.03906 -0.152344,0.07813 -0.226562,0.117188 -0.09375,0.05078 -0.1875,0.09766 -0.28125,0.148437 -0.101563,0.05078 -0.203125,0.101563 -0.304688,0.15625 -0.039062,0.02344 -0.082031,0.04297 -0.125,0.06641 -0.089844,0.04687 -0.179687,0.09375 -0.269531,0.144531 -0.066406,0.03516 -0.136719,0.07031 -0.203125,0.105469 -0.082031,0.04297 -0.164062,0.08594 -0.246094,0.132813 -0.078125,0.04297 -0.160156,0.08594 -0.238281,0.128906 -0.113281,0.05859 -0.226563,0.117188 -0.335937,0.179688 -0.046876,0.02734 -0.09375,0.05469 -0.144532,0.07812 -0.00781,0.0039 -0.015625,0.01172 -0.027344,0.01563 -0.054687,0.03125 -0.109374,0.05859 -0.167968,0.08594 -0.00391,-0.0039 -0.00781,-0.01172 -0.011719,-0.01953 C 7.511719,13.097656 7.445312,12.980469 7.378906,12.863281 7.332031,12.785156 7.285156,12.707031 7.238281,12.625 7.175781,12.511719 7.109375,12.398438 7.042969,12.28125 7.015625,12.234375 6.984375,12.183594 6.957031,12.132812 6.945312,12.113281 6.933594,12.09375 6.921875,12.070312 6.667969,11.628906 6.414062,11.1875 6.160156,10.746094 6.152344,10.734375 6.148438,10.726562 6.140625,10.714844 6.128906,10.695312 6.117188,10.675781 6.105469,10.65625 6.078125,10.605469 6.050781,10.554688 6.019531,10.503906 c -0.0625,-0.109375 -0.125,-0.21875 -0.1875,-0.328125 C 5.785156,10.09375 5.738281,10.007812 5.6875,9.925781 5.644531,9.847656 5.601562,9.773438 5.554688,9.695312 5.511719,9.621094 5.46875,9.542969 5.425781,9.46875 5.378906,9.390625 5.335938,9.308594 5.289062,9.230469 5.222656,9.117188 5.15625,9 5.09375,8.886719 5.0625,8.835938 5.035156,8.789062 5.007812,8.738281 4.996094,8.71875 4.984375,8.699219 4.972656,8.675781 4.71875,8.234375 4.460938,7.792969 4.207031,7.351562 4.203125,7.339844 4.195312,7.332031 4.191406,7.320312 4.179688,7.300781 4.167969,7.28125 4.15625,7.261719 4.128906,7.210938 4.097656,7.160156 4.070312,7.109375 4.007812,7 3.945312,6.890625 3.882812,6.78125 3.835938,6.699219 3.785156,6.613281 3.738281,6.53125 3.691406,6.453125 3.648438,6.378906 3.605469,6.300781 3.5625,6.226562 3.519531,6.148438 3.476562,6.074219 3.429688,5.996094 3.382812,5.914062 3.339844,5.835938 3.273438,5.722656 3.207031,5.605469 3.140625,5.492188 3.113281,5.441406 3.085938,5.394531 3.054688,5.34375 3.042969,5.324219 3.03125,5.300781 3.019531,5.28125 2.765625,4.839844 2.511719,4.398438 2.257812,3.957031 2.253906,3.945312 2.246094,3.9375 2.242188,3.925781 2.230469,3.90625 2.21875,3.886719 2.207031,3.867188 2.175781,3.816406 2.148438,3.765625 2.121094,3.714844 2.054688,3.605469 1.992188,3.496094 1.929688,3.386719 1.882812,3.300781 1.835938,3.21875 1.785156,3.136719 1.742188,3.058594 1.699219,2.980469 1.65625,2.90625 1.613281,2.828125 1.570312,2.753906 1.523438,2.679688 1.480469,2.601562 1.433594,2.519531 1.386719,2.441406 1.324219,2.328125 1.257812,2.210938 1.191406,2.097656 1.164062,2.046875 1.132812,1.996094 1.105469,1.949219 1.09375,1.929688 1.082031,1.90625 1.070312,1.886719 0.863281,1.527344 0.652344,1.164062 0.445312,0.800781 0.441406,0.792969 0.433594,0.78125 0.429688,0.773438 0.417969,0.753906 0.40625,0.730469 0.394531,0.710938 0.367188,0.660156 0.335938,0.613281 0.308594,0.5625 0.257812,0.476562 0.210938,0.394531 0.164062,0.3125 0.160156,0.304688 0.15625,0.300781 0.152344,0.292969 0.136719,0.265625 0.121094,0.238281 0.105469,0.207031 0.101562,0.199219 0.09375,0.1875 0.0898438,0.179688 0.0820312,0.164062 0.0820312,0.164062 0.0703125,0.148438 0.0507812,0.113281 0.03125,0.0820312 0.0078125,0.046875 0,0.0273438 0,0.0273438 0,0 Z m 0,0"
         id="path4" /></g><rect
       style="fill:#ffffff;fill-opacity:0;stroke:#e64c2b;stroke-width:1.02449;stroke-linecap:round;stroke-linejoin:round;stroke-dasharray:none;stroke-opacity:1;paint-order:markers fill stroke"
       id="rect1"
       width="186.60133"
       height="128.88319"
       x="9.9039688"
       y="72.973465"
       ry="5.5583043" /></g></svg>
